<svg version="1.1" id="Layer_1" xmlns="http://www.w3.org/2000/svg" xmlns:xlink="http://www.w3.org/1999/xlink" x="0px" y="0px"
	 width="100%" viewBox="0 0 500 280" enable-background="new 0 0 500 280" xml:space="preserve">
<path fill="#F6F6F6" opacity="1.000000" stroke="none" 
	d="
M307.000000,281.000000 
	C204.666687,281.000000 102.833366,281.000000 1.000041,281.000000 
	C1.000027,187.666702 1.000027,94.333405 1.000014,1.000079 
	C167.666611,1.000052 334.333221,1.000052 500.999878,1.000026 
	C500.999908,94.333252 500.999908,187.666504 500.999939,280.999878 
	C436.500000,281.000000 372.000000,281.000000 307.000000,281.000000 
M56.744621,135.655258 
	C56.118355,136.027405 55.492088,136.399567 54.167873,136.889023 
	C50.702110,139.880920 47.236343,142.872833 43.243233,146.015793 
	C42.829700,146.345642 42.416172,146.675491 41.509556,146.989044 
	C41.509556,146.989044 41.017742,147.028030 40.206562,147.017090 
	C32.217655,149.847626 24.792566,153.503494 19.252102,161.078262 
	C18.906456,162.069138 18.560810,163.060013 18.087610,164.909454 
	C18.088652,166.934814 18.089693,168.960159 18.018843,171.823105 
	C18.075796,173.220200 18.132751,174.617310 18.106134,176.803955 
	C18.051918,177.861435 17.997700,178.918900 17.400841,180.454483 
	C15.917928,184.941223 14.114620,189.360596 13.148077,193.955933 
	C12.859553,195.327728 14.625252,198.284012 15.946627,198.632996 
	C20.516531,199.839890 25.305454,200.217468 30.860533,200.988800 
	C42.367573,201.932129 53.874615,202.875458 65.788795,203.852173 
	C64.157890,188.328888 63.467861,173.452072 72.452339,159.519241 
	C74.084587,157.413696 75.716835,155.308151 77.973091,152.971878 
	C86.602646,145.139862 96.832870,142.565689 108.319801,142.801514 
	C126.461227,143.173935 142.598282,154.805115 146.873764,172.414673 
	C148.845657,180.536316 149.175949,189.088913 149.853439,197.478165 
	C150.170532,201.404587 151.396011,203.355499 155.586594,202.960922 
	C160.708008,202.478699 165.851974,202.235779 171.922119,201.969086 
	C208.336975,201.941086 244.752090,201.827744 281.166534,201.935837 
	C292.442657,201.969315 303.721069,202.511124 314.990509,203.001785 
	C321.166779,203.270706 327.326569,203.918533 333.485291,204.394836 
	C333.285522,202.221222 333.089722,200.090347 332.772736,197.490753 
	C332.584778,197.212997 332.334351,197.013687 331.986053,196.441147 
	C331.986053,196.441147 331.916565,195.993469 331.989532,195.121780 
	C331.994354,193.080978 331.999146,191.040192 332.055084,188.333252 
	C332.035553,187.888626 332.015991,187.444016 332.040894,186.126785 
	C332.645081,182.570084 333.291687,179.019989 333.846588,175.455627 
	C337.689484,150.770935 362.130157,136.254227 386.647614,141.573807 
	C400.259338,144.527130 409.749847,152.489288 416.975800,164.706650 
	C417.990417,167.974411 419.017609,171.238327 420.016022,174.511032 
	C420.990143,177.704361 421.934814,180.906662 422.935242,184.905045 
	C422.940186,186.240189 422.945099,187.575333 422.316681,189.449402 
	C422.027191,192.911163 421.633514,196.368576 421.488159,199.836380 
	C421.403992,201.845215 421.938477,203.611206 425.493134,202.782379 
	C427.990967,202.464798 430.488800,202.147217 433.803467,201.896500 
	C441.867554,200.231812 449.931641,198.567123 458.803436,196.946838 
	C461.540497,196.348038 464.290924,195.804184 467.012177,195.140579 
	C477.089447,192.683151 483.759277,183.868408 483.905975,172.160431 
	C483.589508,165.775589 483.273041,159.390762 482.968842,152.272446 
	C479.652161,148.179520 476.335480,144.086594 472.492065,139.587631 
	C469.922241,136.771652 467.352417,133.955673 464.677612,130.460052 
	C462.507996,127.583031 462.984100,124.886314 466.152893,123.551216 
	C471.117279,121.459557 471.627838,118.071732 470.362366,113.507851 
	C469.889099,111.801125 470.148804,109.891151 470.751892,107.963127 
	C471.497955,107.557060 472.244049,107.150993 473.783264,106.837036 
	C480.416534,106.080650 485.522980,102.509621 490.355011,97.918137 
	C483.127319,96.845726 476.087494,96.465637 469.044800,96.401863 
	C462.239471,96.340240 455.356262,96.250992 448.584564,100.189728 
	C444.727844,100.088463 440.871124,99.987190 436.086792,99.746452 
	C431.054565,99.895790 426.022339,100.045120 420.269257,100.123535 
	C417.407043,102.412857 414.544800,104.702179 410.878510,106.981216 
	C408.790009,106.596931 406.639069,106.415871 404.622925,105.796158 
	C388.728607,100.910629 372.860046,95.941360 356.647156,90.349808 
	C351.092651,88.873512 345.538147,87.397217 339.521790,85.373627 
	C338.935883,85.059311 338.384277,84.619057 337.759125,84.448914 
	C317.390961,78.905159 296.597168,75.950241 275.554993,75.127144 
	C265.961700,74.751892 256.253937,75.124237 246.719360,76.216377 
	C240.674438,76.908798 234.852966,79.552147 228.216537,81.236862 
	C225.201767,82.903572 222.186981,84.570282 218.441818,86.179306 
	C216.929855,86.832436 215.336121,87.343689 213.918518,88.160561 
	C199.152313,96.669357 184.416885,105.231560 169.666077,113.767097 
	C167.330765,115.118431 165.212723,117.342758 162.101715,114.852600 
	C161.648636,114.489944 159.442825,116.317032 157.133942,117.089066 
	C153.776825,117.394524 150.419708,117.699989 146.248093,118.100929 
	C136.141113,119.733383 126.016029,121.265266 115.941643,123.078796 
	C113.794083,123.465393 111.860718,124.949944 109.774162,125.793892 
	C107.781464,126.599876 105.449821,128.235596 103.728012,127.776878 
	C91.177155,124.433029 79.157097,128.026978 66.548302,130.215286 
	C66.336563,130.470810 66.124817,130.726318 65.529831,130.966675 
	C65.529831,130.966675 65.146378,130.958435 64.352585,130.976669 
	C60.887123,130.747650 59.531971,132.833679 58.342712,135.927933 
	C57.896801,136.006805 57.450893,136.085693 56.744621,135.655258 
z"/>
<path fill="#EAEAEA" opacity="1.000000" stroke="none" 
	d="
M356.983551,90.997864 
	C372.860046,95.941360 388.728607,100.910629 404.622925,105.796158 
	C406.639069,106.415871 408.790009,106.596931 411.572144,107.180496 
	C415.947235,110.252205 419.493988,109.513062 423.318481,107.034241 
	C426.740692,108.787575 429.818268,110.486938 433.022461,112.413094 
	C433.421326,112.854698 433.693634,113.069511 434.024811,113.631134 
	C434.556000,117.789742 435.075500,121.596573 435.477417,125.415771 
	C435.638397,126.945580 436.171356,129.167664 435.410614,129.889221 
	C434.308716,130.934357 432.203857,131.164810 430.495239,131.282074 
	C425.338654,131.635941 420.166779,131.767410 414.576508,131.984451 
	C404.937622,131.316208 395.726044,130.153427 386.507904,130.099121 
	C372.940277,130.019180 359.367950,130.729935 345.412018,131.042236 
	C342.125977,130.786972 339.225586,130.593338 335.957581,130.226288 
	C334.787201,130.115143 333.984344,130.177429 332.736816,130.165405 
	C330.190277,130.075577 328.088440,130.060043 325.908691,129.664505 
	C323.539795,129.047272 321.248627,128.617386 318.957886,128.619659 
	C315.820129,128.622787 312.682770,128.954056 309.545227,129.144699 
	C309.052704,128.355194 308.709259,129.405609 308.355927,129.408936 
	C279.567993,129.680969 250.779251,129.871429 221.614288,130.048904 
	C220.484589,130.052078 219.731186,130.074234 218.678223,130.096313 
	C216.588562,129.395218 214.798477,128.694229 212.853104,127.691742 
	C211.133041,125.889259 209.568283,124.388260 208.464783,122.897209 
	C210.713013,122.938652 212.529846,123.188156 214.279556,122.948181 
	C216.631271,122.625641 218.931152,121.925247 221.555969,121.378098 
	C222.241577,121.264809 222.624527,121.160477 223.453842,121.207260 
	C229.251007,121.179375 234.601807,121.000359 240.375748,121.000549 
	C243.532242,121.121941 246.265579,121.064117 249.290634,121.214783 
	C251.893387,121.199188 254.204437,120.975121 256.946777,120.768791 
	C263.319611,120.486618 269.261139,120.186707 275.614227,119.984245 
	C278.550049,120.018600 281.074341,119.955490 283.853516,120.115616 
	C286.496185,120.073067 288.883911,119.807281 291.308167,119.407288 
	C291.344635,119.273079 291.092102,119.156441 291.513977,119.262817 
	C293.955994,119.252594 295.976166,119.135986 298.130798,119.234550 
	C298.768250,119.505310 299.271210,119.560905 300.220886,119.805214 
	C305.858429,119.458832 311.049347,118.923737 316.685364,118.382202 
	C320.754395,118.296738 324.378296,118.217712 328.295898,118.370758 
	C331.151733,118.225952 333.713837,117.849068 336.711792,117.455391 
	C340.099335,117.344894 343.050995,117.251198 346.266388,117.384644 
	C348.449890,117.244705 350.369629,116.877632 352.706909,116.491074 
	C355.083984,116.370102 357.043579,116.268616 359.251129,116.385544 
	C361.085236,116.210823 362.671387,115.817688 364.602295,115.410629 
	C365.636597,115.375092 366.326141,115.353470 367.303528,115.565475 
	C370.653809,115.340515 373.846222,115.261879 376.728210,114.275940 
	C378.366241,113.715576 379.496399,111.670799 380.855255,110.294510 
	C379.159698,108.970642 377.464172,107.646774 375.452393,106.199989 
	C373.800568,105.345131 372.464935,104.613197 370.901978,103.627579 
	C370.021576,102.920158 369.430450,102.264946 368.706329,102.042358 
	C353.083435,97.239960 337.457764,92.445160 321.791046,87.788780 
	C320.308624,87.348183 318.550507,87.835114 316.724426,87.648666 
	C315.677429,86.963860 314.826385,86.521820 313.585693,85.983025 
	C305.466949,84.910789 297.737793,83.935310 289.556763,82.895401 
	C280.039703,82.486511 270.976410,82.044937 261.907959,81.864204 
	C259.570221,81.817612 257.216125,82.591026 254.519104,82.957794 
	C253.248947,83.242950 252.315979,83.862488 251.411697,83.823097 
	C246.070267,83.590446 241.227737,84.899620 236.525711,88.052124 
	C233.463959,89.042549 230.788849,90.064095 227.733490,91.048050 
	C222.920181,94.036560 218.487106,97.062660 213.918732,100.204803 
	C213.783447,100.320862 213.446732,100.203873 213.137726,100.069977 
	C212.420776,100.474632 212.012848,101.013168 211.566498,101.607315 
	C211.528076,101.662926 211.476028,101.787666 211.123444,101.567268 
	C208.956528,101.967514 207.127914,102.549805 205.331314,103.218155 
	C202.886047,104.127815 200.465210,105.103210 198.169617,105.738541 
	C201.237534,103.430161 204.311798,101.608841 207.057571,99.382401 
	C209.304764,97.560249 211.160416,95.255203 213.403442,93.156990 
	C213.617264,93.149750 214.036850,93.066025 214.274628,93.054810 
	C214.512421,93.043602 214.988342,93.031563 215.331375,93.024216 
	C216.468109,92.382332 217.261795,91.747795 218.414825,91.068459 
	C221.489685,89.542503 224.465485,88.378883 226.815857,86.452278 
	C228.076279,85.419113 228.261108,83.073769 228.931290,81.320549 
	C234.852966,79.552147 240.674438,76.908798 246.719360,76.216377 
	C256.253937,75.124237 265.961700,74.751892 275.554993,75.127144 
	C296.597168,75.950241 317.390961,78.905159 337.759125,84.448914 
	C338.384277,84.619057 338.935883,85.059311 339.958160,85.950569 
	C345.924194,88.017624 351.453888,89.507744 356.983551,90.997864 
z"/>
<path fill="#C2BFBA" opacity="1.000000" stroke="none" 
	d="
M42.002640,147.005341 
	C42.416172,146.675491 42.829700,146.345642 43.710106,146.207108 
	C46.112602,145.587891 48.048222,144.777359 50.078812,144.356506 
	C50.989956,145.158966 51.826748,145.965164 52.619099,145.923630 
	C60.459118,145.512650 68.290710,144.944031 76.127037,144.457886 
	C79.415581,144.253860 82.709755,144.140396 85.799332,144.258881 
	C82.724922,147.042343 79.852547,149.552704 76.561356,152.070251 
	C72.412956,152.383362 68.679359,152.648041 64.955109,153.009064 
	C62.285942,153.267822 59.629269,153.655472 56.983994,153.993317 
	C57.000973,154.001022 56.984688,153.967468 56.663994,154.143005 
	C53.790028,157.281540 55.521812,157.739685 58.324905,158.039474 
	C62.889427,158.527679 67.422745,159.307648 71.969231,159.964478 
	C63.467861,173.452072 64.157890,188.328888 65.788795,203.852173 
	C53.874615,202.875458 42.367573,201.932129 30.390205,200.605255 
	C25.927744,193.473267 21.935610,186.724823 17.943480,179.976379 
	C17.997700,178.918900 18.051918,177.861435 18.468140,176.331512 
	C19.625195,174.076553 23.174234,171.876175 18.090736,170.985519 
	C18.089693,168.960159 18.088652,166.934814 18.485176,164.460602 
	C20.973372,163.969055 23.067007,163.980270 25.153513,163.863754 
	C26.436039,163.792130 27.986534,163.931137 28.937452,163.277893 
	C33.900787,159.868362 38.710537,156.235260 43.576057,152.678223 
	C43.096081,150.947662 42.549362,148.976501 42.002640,147.005341 
z"/>
<path fill="#C3C1BC" opacity="1.000000" stroke="none" 
	d="
M331.996460,186.999390 
	C332.015991,187.444016 332.035553,187.888626 331.659760,188.748123 
	C330.109314,191.408752 328.954193,193.654510 327.751099,195.993469 
	C328.712311,195.993469 330.314453,195.993469 331.916565,195.993469 
	C331.916565,195.993469 331.986053,196.441147 332.086304,196.892456 
	C332.350281,197.631836 332.586060,197.837067 332.893890,197.959473 
	C333.089722,200.090347 333.285522,202.221222 333.485291,204.394836 
	C327.326569,203.918533 321.166779,203.270706 314.990509,203.001785 
	C303.721069,202.511124 292.442657,201.969315 281.166534,201.935837 
	C244.752090,201.827744 208.336975,201.941086 171.394531,201.549744 
	C168.302536,197.042145 164.292984,199.374268 160.978546,199.119537 
	C157.564056,198.857101 154.697540,198.914902 154.839645,194.297607 
	C154.945297,190.863708 154.673462,187.418198 154.872437,184.224960 
	C156.435883,184.731750 157.696640,184.991440 158.988892,185.631958 
	C163.010986,187.004410 167.001572,187.996048 171.090286,189.382294 
	C172.689041,190.184189 174.199203,190.972076 175.688751,190.934875 
	C183.401093,190.742249 191.105408,190.163086 198.817596,190.040863 
	C224.521713,189.633362 250.227600,189.324020 275.933655,189.058517 
	C287.530548,188.938721 299.129578,189.028763 310.727295,188.962570 
	C311.624420,188.957443 312.518799,188.468109 313.414459,188.203827 
	C313.352295,187.801559 313.290131,187.399307 313.227966,186.997055 
	C311.446442,186.997055 309.615112,187.251892 307.899139,186.916443 
	C306.526276,186.648071 305.293640,185.662079 304.003723,184.717026 
	C304.009552,184.254379 304.010498,184.069290 304.458527,183.828125 
	C307.292816,183.692581 309.680054,183.613144 312.510742,183.633270 
	C316.287872,183.761276 319.621582,183.789719 323.271729,183.908981 
	C324.590240,183.613724 325.592285,183.227661 326.990265,182.888855 
	C328.922943,184.290527 330.459686,185.644958 331.996460,186.999390 
M240.594666,197.992126 
	C261.616425,197.622360 282.638153,197.252594 303.659912,196.882828 
	C303.652496,196.823517 303.645111,196.764206 303.637695,196.704895 
	C280.011322,196.704895 256.384949,196.704895 232.758560,196.704895 
	C232.763641,197.133774 232.768707,197.562668 232.773788,197.991547 
	C235.061234,197.991547 237.348663,197.991547 240.594666,197.992126 
M160.169144,194.015167 
	C159.371109,194.354309 158.573090,194.693451 157.775055,195.032593 
	C157.832977,195.233856 157.890900,195.435104 157.948822,195.636353 
	C165.171066,195.636353 172.393311,195.636353 179.615555,195.636353 
	C179.613297,195.520050 179.611023,195.403732 179.608765,195.287430 
	C173.407303,194.858810 167.205826,194.430191 160.169144,194.015167 
M206.231979,196.000519 
	C210.093658,196.000519 213.955353,196.000519 217.817032,196.000519 
	C217.811234,195.755920 217.805420,195.511322 217.799606,195.266724 
	C213.242020,195.266724 208.684433,195.266724 202.801178,195.266724 
	C204.554413,195.749146 205.001892,195.872269 206.231979,196.000519 
M192.174423,195.275146 
	C192.025558,195.383011 191.876709,195.490860 191.727859,195.598724 
	C191.933609,195.577682 192.139374,195.556641 192.174423,195.275146 
M227.577133,195.515137 
	C227.577133,195.515137 227.477844,195.571716 227.577133,195.515137 
M318.515625,195.422211 
	C318.515625,195.422211 318.573090,195.521988 318.515625,195.422211 
z"/>
<path fill="#C3C1BC" opacity="1.000000" stroke="none" 
	d="
M422.950012,188.910477 
	C422.945099,187.575333 422.940186,186.240189 423.196442,184.257812 
	C422.631622,179.074310 421.805634,174.538025 421.244843,169.777618 
	C421.389954,168.478729 421.520172,167.294891 421.107269,166.347794 
	C419.152344,161.863739 417.049133,157.444305 415.366760,153.045822 
	C419.475189,154.060287 423.212433,155.839081 426.956757,155.854172 
	C439.697784,155.905487 452.440033,155.264877 465.184418,155.030579 
	C471.619141,154.912277 472.228546,155.938721 470.200470,162.078537 
	C469.953979,162.824738 470.161102,163.720764 469.851715,164.754547 
	C466.081543,165.792908 462.617645,166.624054 458.759644,167.347778 
	C448.949738,168.648972 440.053070,171.028015 434.341156,180.014099 
	C434.023132,181.728622 434.010315,183.359283 433.628601,185.177917 
	C433.549042,186.659149 433.423859,188.636841 434.208557,189.112076 
	C436.227295,190.334610 438.649200,190.891388 441.092957,192.004990 
	C443.168213,192.502563 445.060547,192.709381 446.903442,193.280548 
	C445.007782,194.462357 443.175934,195.314392 441.312042,196.089493 
	C438.125183,197.414734 434.022491,197.390259 432.986633,201.829620 
	C430.488800,202.147217 427.990967,202.464798 425.123474,202.248627 
	C424.152557,197.446732 423.551270,193.178604 422.950012,188.910477 
z"/>
<path fill="#D2D1CF" opacity="1.000000" stroke="none" 
	d="
M345.797607,131.103882 
	C359.367950,130.729935 372.940277,130.019180 386.507904,130.099121 
	C395.726044,130.153427 404.937622,131.316208 414.866180,132.274765 
	C417.377197,132.711655 419.192657,132.741257 420.967529,133.024902 
	C425.718323,133.784103 430.451721,134.652222 435.191284,135.798157 
	C437.791229,138.464844 440.131378,141.239212 443.071777,143.025681 
	C445.603119,144.563660 448.837067,145.784485 451.728333,145.719559 
	C458.130035,145.575836 464.511627,144.535843 471.256653,143.939880 
	C475.682709,143.935822 472.612854,141.357269 473.018768,139.993652 
	C476.335480,144.086594 479.652161,148.179520 482.623108,152.601135 
	C481.184113,152.621628 480.090851,152.313431 478.569214,152.003891 
	C476.426849,152.002518 474.712799,152.002472 472.544891,152.001282 
	C469.061890,151.998245 466.032776,151.996384 462.937378,151.651703 
	C461.189911,149.333755 459.849792,149.288193 458.664124,151.994141 
	C457.889648,151.994003 457.447113,151.993637 456.962219,151.699417 
	C456.278320,151.601273 455.636749,151.796982 454.663391,151.993042 
	C453.889252,151.993164 453.446899,151.992920 452.937988,151.647827 
	C450.576324,148.675385 448.821381,150.617294 446.600159,151.997604 
	C445.134094,151.997650 444.067871,151.997131 442.915894,151.621567 
	C441.840942,150.832047 440.878815,150.154663 439.857758,150.049438 
	C435.824402,149.633743 431.812164,149.508728 433.509308,143.424606 
	C433.729401,142.635483 432.145233,140.864639 431.019104,140.294022 
	C429.449738,139.498825 427.542267,139.264023 425.748138,139.036682 
	C414.816681,137.651443 403.900726,136.063065 392.931213,135.085129 
	C384.298706,134.315536 375.579376,133.840836 366.930725,134.145859 
	C359.930237,134.392761 352.977539,135.995956 346.000885,136.593231 
	C345.964813,135.381195 345.931519,134.573502 345.923706,133.429810 
	C345.898712,132.430496 345.848175,131.767197 345.797607,131.103882 
z"/>
<path fill="#F0F0F0" opacity="1.000000" stroke="none" 
	d="
M67.001404,129.999390 
	C79.157097,128.026978 91.177155,124.433029 103.728012,127.776878 
	C105.449821,128.235596 107.781464,126.599876 109.774162,125.793892 
	C111.860718,124.949944 113.794083,123.465393 115.941643,123.078796 
	C126.016029,121.265266 136.141113,119.733383 146.867249,118.311722 
	C150.604218,119.609085 153.666916,121.319237 156.855820,121.600929 
	C159.843262,121.864815 162.964310,120.616142 166.294281,120.216980 
	C167.698730,121.241859 168.835464,122.082855 170.372437,122.950516 
	C171.840652,122.973602 172.908646,122.970016 174.296112,123.020454 
	C175.071121,123.711090 175.526688,124.347702 175.988861,124.991257 
	C175.995483,124.998207 175.989807,124.988426 175.770081,125.094452 
	C175.272644,125.395493 175.086487,125.655960 174.994781,125.990707 
	C174.997665,125.999527 174.982239,125.986023 174.682358,126.004440 
	C173.905655,126.344406 173.428833,126.665962 172.486877,126.987732 
	C161.759079,127.328026 151.493958,127.608543 141.234711,128.031021 
	C135.289764,128.275848 129.356384,128.788589 123.414017,129.111206 
	C111.280342,129.769943 99.144081,130.380920 87.008980,131.013519 
	C85.191002,131.108276 83.368279,131.156525 81.556870,131.324631 
	C75.976959,131.842407 70.401459,132.407867 64.869888,132.621231 
	C64.992477,131.844574 65.069427,131.401505 65.146378,130.958435 
	C65.146378,130.958435 65.529831,130.966675 65.959137,130.879562 
	C66.592766,130.528091 66.797081,130.263733 67.001404,129.999390 
z"/>
<path fill="#BEBDBA" opacity="1.000000" stroke="none" 
	d="
M414.998779,153.001831 
	C417.049133,157.444305 419.152344,161.863739 421.107269,166.347794 
	C421.520172,167.294891 421.389954,168.478729 420.989075,169.559418 
	C419.276428,167.680817 418.084808,165.796280 416.893188,163.911743 
	C409.749847,152.489288 400.259338,144.527130 386.647614,141.573807 
	C362.130157,136.254227 337.689484,150.770935 333.846588,175.455627 
	C333.291687,179.019989 332.645081,182.570084 332.018677,186.563080 
	C330.459686,185.644958 328.922943,184.290527 327.120178,182.564972 
	C327.196899,181.118591 327.539581,180.043320 328.052460,178.654465 
	C328.456879,176.947083 328.691071,175.553284 329.124023,173.863663 
	C331.548126,169.044418 333.773438,164.520981 336.147705,159.698303 
	C343.176483,149.953278 351.588226,142.512787 363.418396,138.987595 
	C374.647125,136.507721 385.354187,137.265488 396.229919,140.273026 
	C399.307220,141.364944 402.152405,142.189499 405.146179,143.311340 
	C407.860992,145.741257 410.427155,147.873886 413.122772,150.279755 
	C413.834412,151.369263 414.416595,152.185547 414.998779,153.001831 
z"/>
<path fill="#BEBDBA" opacity="1.000000" stroke="none" 
	d="
M154.569748,183.977859 
	C154.673462,187.418198 154.945297,190.863708 154.839645,194.297607 
	C154.697540,198.914902 157.564056,198.857101 160.978546,199.119537 
	C164.292984,199.374268 168.302536,197.042145 170.926559,201.509872 
	C165.851974,202.235779 160.708008,202.478699 155.586594,202.960922 
	C151.396011,203.355499 150.170532,201.404587 149.853439,197.478165 
	C149.175949,189.088913 148.845657,180.536316 146.873764,172.414673 
	C142.598282,154.805115 126.461227,143.173935 108.319801,142.801514 
	C96.832870,142.565689 86.602646,145.139862 77.534241,152.813049 
	C77.056976,152.457153 77.018570,152.260101 76.980164,152.063049 
	C79.852547,149.552704 82.724922,147.042343 86.170563,144.216232 
	C96.814857,139.209198 107.211678,138.016006 118.237915,141.260162 
	C135.695190,146.923859 147.939697,156.886932 150.670654,175.937180 
	C150.857513,177.240631 153.282043,178.223282 154.469116,179.653107 
	C154.371460,181.293335 154.470612,182.635605 154.569748,183.977859 
z"/>
<path fill="#BEBDBA" opacity="1.000000" stroke="none" 
	d="
M470.074341,108.073845 
	C470.148804,109.891151 469.889099,111.801125 470.362366,113.507851 
	C471.627838,118.071732 471.117279,121.459557 466.152893,123.551216 
	C462.984100,124.886314 462.507996,127.583031 464.386536,130.779129 
	C462.743103,130.040482 461.390778,128.982773 460.021362,127.547874 
	C459.368561,122.531258 456.887909,121.067863 450.942596,123.071663 
	C454.343903,125.137535 456.735992,126.590431 458.912872,128.311523 
	C457.934662,129.750610 457.372009,131.162628 456.345062,132.015869 
	C455.528320,132.694473 454.144196,132.690216 453.006897,132.590836 
	C452.784210,125.290962 447.168335,122.167969 443.050598,117.574326 
	C443.021423,115.774506 443.001923,114.389961 443.242340,112.798943 
	C443.359894,111.415977 443.217529,110.239487 443.160248,108.757545 
	C443.532227,107.661415 443.819092,106.870728 444.497864,106.020195 
	C445.680420,105.881516 446.471100,105.802681 447.457703,105.798187 
	C447.653595,105.872528 448.013123,106.087883 448.130676,106.361481 
	C448.806793,106.808105 449.365356,106.981133 449.951416,107.499855 
	C450.966003,108.897934 451.953186,109.950310 453.004883,111.319191 
	C454.042206,112.430779 455.014984,113.225853 455.988464,114.407410 
	C456.503387,115.804749 457.017609,116.815605 457.531860,117.826462 
	C459.032318,116.909149 460.532806,115.991844 462.374695,115.006592 
	C463.128204,113.979324 463.540314,113.019997 463.969177,111.667175 
	C464.013031,110.231361 464.040131,109.189049 464.494446,108.117477 
	C466.639191,108.083427 468.356750,108.078636 470.074341,108.073845 
M466.189453,115.591286 
	C466.193207,115.202934 466.200958,114.814369 466.180359,114.427315 
	C466.179749,114.416245 465.877594,114.421227 465.716064,114.418724 
	C465.710968,114.807297 465.705902,115.195877 466.189453,115.591286 
z"/>
<path fill="#1C1C1D" opacity="1.000000" stroke="none" 
	d="
M448.013123,106.087891 
	C448.013123,106.087883 447.653595,105.872528 447.401672,105.469849 
	C447.147766,104.411362 447.145782,103.755554 447.398376,102.951355 
	C448.244995,102.042381 448.836975,101.281799 449.428955,100.521210 
	C455.356262,96.250992 462.239471,96.340240 469.044800,96.401863 
	C476.087494,96.465637 483.127319,96.845726 490.355011,97.918137 
	C485.522980,102.509621 480.416534,106.080650 473.077209,106.513901 
	C465.116150,105.811462 457.862701,105.393837 450.604126,105.104286 
	C449.754883,105.070396 448.877472,105.742874 448.013123,106.087891 
z"/>
<path fill="#C7C6C2" opacity="1.000000" stroke="none" 
	d="
M169.972214,122.923859 
	C168.835464,122.082855 167.698730,121.241859 166.221680,119.869141 
	C163.270264,118.601906 160.659149,117.866386 158.048050,117.130859 
	C159.442825,116.317032 161.648636,114.489944 162.101715,114.852600 
	C165.212723,117.342758 167.330765,115.118431 169.666077,113.767097 
	C184.416885,105.231560 199.152313,96.669357 213.918518,88.160561 
	C215.336121,87.343689 216.929855,86.832436 218.711700,86.520157 
	C218.672882,88.278427 218.364182,89.695839 218.055481,91.113251 
	C217.261795,91.747795 216.468109,92.382332 215.246979,92.853333 
	C214.558640,92.815216 214.297745,92.940628 214.036850,93.066025 
	C214.036850,93.066025 213.617264,93.149750 213.061264,93.234894 
	C199.971970,101.301277 187.386948,109.203537 174.957535,117.343384 
	C172.941986,118.663330 171.616608,121.037163 169.972214,122.923859 
z"/>
<path fill="#C7C6C2" opacity="1.000000" stroke="none" 
	d="
M433.395050,201.863068 
	C434.022491,197.390259 438.125183,197.414734 441.312042,196.089493 
	C443.175934,195.314392 445.007782,194.462357 446.931946,193.085541 
	C447.107483,192.275070 447.148773,192.015015 447.555542,191.610077 
	C450.651886,191.317657 453.326477,191.161179 456.209839,191.254578 
	C457.636932,191.122864 458.855255,190.741241 460.433533,190.266663 
	C461.534821,190.137863 462.276123,190.102005 463.225250,190.302734 
	C467.253387,188.413147 468.571930,184.518143 466.999054,179.637024 
	C467.003235,178.530075 467.007172,177.792099 467.379730,177.020569 
	C473.727051,174.274750 474.722717,168.636963 475.925171,163.077362 
	C475.951843,163.049774 476.005280,162.994766 476.368042,163.042969 
	C481.254425,167.168365 476.826843,170.686844 476.008057,174.422684 
	C475.584076,176.357208 474.553192,178.299759 474.672089,180.183411 
	C474.936157,184.367645 471.970734,189.669037 468.054413,191.536942 
	C464.627960,193.171219 461.343140,195.102402 457.995728,196.902435 
	C449.931641,198.567123 441.867554,200.231812 433.395050,201.863068 
z"/>
<path fill="#CBCAC6" opacity="1.000000" stroke="none" 
	d="
M458.399597,196.924637 
	C461.343140,195.102402 464.627960,193.171219 468.054413,191.536942 
	C471.970734,189.669037 474.936157,184.367645 474.672089,180.183411 
	C474.553192,178.299759 475.584076,176.357208 476.008057,174.422684 
	C476.826843,170.686844 481.254425,167.168365 476.410767,162.678818 
	C478.569336,158.776428 479.018890,155.804443 474.170776,153.940765 
	C473.614014,153.726730 473.381592,152.668991 472.998779,152.002441 
	C474.712799,152.002472 476.426849,152.002518 478.618347,152.378998 
	C479.717438,154.884659 480.798584,157.001495 480.856262,159.145859 
	C480.949982,162.632111 480.034790,166.159012 480.265594,169.620697 
	C480.345886,170.824844 482.561737,171.886597 483.802216,173.013397 
	C483.759277,183.868408 477.089447,192.683151 467.012177,195.140579 
	C464.290924,195.804184 461.540497,196.348038 458.399597,196.924637 
z"/>
<path fill="#C7C6C2" opacity="1.000000" stroke="none" 
	d="
M17.672159,180.215424 
	C21.935610,186.724823 25.927744,193.473267 29.965443,200.566223 
	C25.305454,200.217468 20.516531,199.839890 15.946627,198.632996 
	C14.625252,198.284012 12.859553,195.327728 13.148077,193.955933 
	C14.114620,189.360596 15.917928,184.941223 17.672159,180.215424 
z"/>
<path fill="#A4A4A0" opacity="1.000000" stroke="none" 
	d="
M449.006775,100.355469 
	C448.836975,101.281799 448.244995,102.042381 447.002960,102.959969 
	C444.760345,103.302673 443.150970,103.398506 441.578461,103.691879 
	C437.731171,104.409637 433.900879,105.218658 430.063751,105.990952 
	C430.354431,106.357910 430.645081,106.724869 430.986572,107.436035 
	C431.656860,109.248924 432.276337,110.717621 432.895844,112.186310 
	C429.818268,110.486938 426.740692,108.787575 423.275604,106.669235 
	C422.571442,104.823853 422.254761,103.397453 422.383423,101.993927 
	C427.557312,101.306511 432.285858,100.596214 437.014404,99.885925 
	C440.871124,99.987190 444.727844,100.088463 449.006775,100.355469 
z"/>
<path fill="#CBCAC6" opacity="1.000000" stroke="none" 
	d="
M41.756100,146.997192 
	C42.549362,148.976501 43.096081,150.947662 43.576057,152.678223 
	C38.710537,156.235260 33.900787,159.868362 28.937452,163.277893 
	C27.986534,163.931137 26.436039,163.792130 25.153513,163.863754 
	C23.067007,163.980270 20.973372,163.969055 18.548954,164.031311 
	C18.560810,163.060013 18.906456,162.069138 20.020699,161.016693 
	C24.652647,161.153183 27.701939,160.902893 30.324312,156.775497 
	C32.820107,152.847351 37.370621,150.224686 41.017746,147.028030 
	C41.017742,147.028030 41.509556,146.989044 41.756100,146.997192 
z"/>
<path fill="#DFDFDF" opacity="1.000000" stroke="none" 
	d="
M40.612152,147.022552 
	C37.370621,150.224686 32.820107,152.847351 30.324312,156.775497 
	C27.701939,160.902893 24.652647,161.153183 20.349985,160.918640 
	C24.792566,153.503494 32.217655,149.847626 40.612152,147.022552 
z"/>
<path fill="#91918D" opacity="1.000000" stroke="none" 
	d="
M460.038422,127.925064 
	C461.390778,128.982773 462.743103,130.040482 464.439026,131.118958 
	C467.352417,133.955673 469.922241,136.771652 472.755432,139.790649 
	C472.612854,141.357269 475.682709,143.935822 471.268799,143.581284 
	C468.729645,140.161835 466.887543,136.774536 464.164886,134.394714 
	C463.062347,133.431015 460.031860,134.910400 457.891113,134.848373 
	C453.263397,134.714249 448.643707,134.302536 444.197571,133.678513 
	C445.573059,133.069687 446.771729,132.786728 448.121277,132.864288 
	C449.852142,133.146240 451.432037,133.067688 453.011963,132.989136 
	C454.144196,132.690216 455.528320,132.694473 456.345062,132.015869 
	C457.372009,131.162628 457.934662,129.750610 459.141846,128.298340 
	C459.586060,128.016937 460.038422,127.925072 460.038422,127.925064 
z"/>
<path fill="#3D3D3A" opacity="1.000000" stroke="none" 
	d="
M421.938110,101.971039 
	C422.254761,103.397453 422.571442,104.823853 422.930969,106.615265 
	C419.493988,109.513062 415.947235,110.252205 411.974152,107.185638 
	C414.544800,104.702179 417.407043,102.412857 420.654022,100.426765 
	C421.338562,101.143677 421.638336,101.557358 421.938110,101.971039 
z"/>
<path fill="#91918D" opacity="1.000000" stroke="none" 
	d="
M76.561356,152.070251 
	C77.018570,152.260101 77.056976,152.457153 77.222229,152.928406 
	C75.716835,155.308151 74.084587,157.413696 72.210785,159.741867 
	C67.422745,159.307648 62.889427,158.527679 58.324905,158.039474 
	C55.521812,157.739685 53.790028,157.281540 56.699242,154.555450 
	C60.129066,159.331802 63.945370,156.173645 67.410927,156.652100 
	C67.478821,155.935806 67.546722,155.219513 67.614616,154.503235 
	C64.065414,154.330688 60.516216,154.158142 56.967018,153.985596 
	C59.629269,153.655472 62.285942,153.267822 64.955109,153.009064 
	C68.679359,152.648041 72.412956,152.383362 76.561356,152.070251 
z"/>
<path fill="#B1AEA9" opacity="1.000000" stroke="none" 
	d="
M157.591003,117.109962 
	C160.659149,117.866386 163.270264,118.601906 165.953964,119.685257 
	C162.964310,120.616142 159.843262,121.864815 156.855820,121.600929 
	C153.666916,121.319237 150.604218,119.609085 147.274506,118.263985 
	C150.419708,117.699989 153.776825,117.394524 157.591003,117.109962 
z"/>
<path fill="#91918D" opacity="1.000000" stroke="none" 
	d="
M218.414825,91.068451 
	C218.364182,89.695839 218.672882,88.278427 219.076904,86.548996 
	C222.186981,84.570282 225.201767,82.903572 228.573914,81.278702 
	C228.261108,83.073769 228.076279,85.419113 226.815857,86.452278 
	C224.465485,88.378883 221.489685,89.542503 218.414825,91.068451 
z"/>
<path fill="#CDCDC9" opacity="1.000000" stroke="none" 
	d="
M483.854095,172.586914 
	C482.561737,171.886597 480.345886,170.824844 480.265594,169.620697 
	C480.034790,166.159012 480.949982,162.632111 480.856262,159.145859 
	C480.798584,157.001495 479.717438,154.884659 479.046692,152.380341 
	C480.090851,152.313431 481.184113,152.621628 482.617004,152.967865 
	C483.273041,159.390762 483.589508,165.775589 483.854095,172.586914 
z"/>
<path fill="#91918D" opacity="1.000000" stroke="none" 
	d="
M448.130676,106.361481 
	C448.877472,105.742874 449.754883,105.070396 450.604126,105.104286 
	C457.862701,105.393837 465.116150,105.811462 472.680634,106.467850 
	C472.244049,107.150993 471.497955,107.557060 470.413116,108.018486 
	C468.356750,108.078636 466.639191,108.083427 464.027405,108.069214 
	C458.730103,107.751526 454.327026,107.452835 449.923950,107.154152 
	C449.365356,106.981133 448.806793,106.808105 448.130676,106.361481 
z"/>
<path fill="#91918D" opacity="1.000000" stroke="none" 
	d="
M49.983841,143.966827 
	C48.048222,144.777359 46.112602,145.587891 43.973782,146.131592 
	C47.236343,142.872833 50.702110,139.880920 54.814762,136.934021 
	C55.976093,136.707535 56.490540,136.436050 57.004982,136.164566 
	C57.450893,136.085693 57.896801,136.006805 58.653755,135.922913 
	C58.964798,135.917892 58.977692,136.005020 58.941956,136.219604 
	C58.906219,136.434189 58.797798,136.855743 58.503212,137.009933 
	C55.467033,139.431686 52.725437,141.699265 49.983841,143.966827 
z"/>
<path fill="#7B7B79" opacity="1.000000" stroke="none" 
	d="
M422.633362,189.179932 
	C423.551270,193.178604 424.152557,197.446732 424.711761,202.133026 
	C421.938477,203.611206 421.403992,201.845215 421.488159,199.836380 
	C421.633514,196.368576 422.027191,192.911163 422.633362,189.179932 
z"/>
<path fill="#B1AEA9" opacity="1.000000" stroke="none" 
	d="
M416.934509,164.309204 
	C418.084808,165.796280 419.276428,167.680817 420.723877,169.783554 
	C421.805634,174.538025 422.631622,179.074310 423.175049,183.857819 
	C421.934814,180.906662 420.990143,177.704361 420.016022,174.511032 
	C419.017609,171.238327 417.990417,167.974411 416.934509,164.309204 
z"/>
<path fill="#D2D1CF" opacity="1.000000" stroke="none" 
	d="
M356.815369,90.673836 
	C351.453888,89.507744 345.924194,88.017624 340.189087,86.224213 
	C345.538147,87.397217 351.092651,88.873512 356.815369,90.673836 
z"/>
<path fill="#444443" opacity="1.000000" stroke="none" 
	d="
M422.383423,101.993927 
	C421.638336,101.557358 421.338562,101.143677 421.014465,100.462227 
	C426.022339,100.045120 431.054565,99.895790 436.550598,99.816185 
	C432.285858,100.596214 427.557312,101.306511 422.383423,101.993927 
z"/>
<path fill="#BEBDBA" opacity="1.000000" stroke="none" 
	d="
M331.953064,195.557617 
	C330.314453,195.993469 328.712311,195.993469 327.751099,195.993469 
	C328.954193,193.654510 330.109314,191.408752 331.634216,189.081192 
	C331.999146,191.040192 331.994354,193.080978 331.953064,195.557617 
z"/>
<path fill="#CBCAC6" opacity="1.000000" stroke="none" 
	d="
M64.749481,130.967560 
	C65.069427,131.401505 64.992477,131.844574 64.543617,132.666794 
	C62.440372,134.032303 60.709034,135.018661 58.977692,136.005020 
	C58.977692,136.005020 58.964798,135.917892 58.990654,135.879364 
	C59.531971,132.833679 60.887123,130.747650 64.749481,130.967560 
z"/>
<path fill="#C7C6C2" opacity="1.000000" stroke="none" 
	d="
M18.054790,171.404312 
	C23.174234,171.876175 19.625195,174.076553 18.509926,175.936737 
	C18.132751,174.617310 18.075796,173.220200 18.054790,171.404312 
z"/>
<path fill="#CBCAC6" opacity="1.000000" stroke="none" 
	d="
M56.874802,135.909912 
	C56.490540,136.436050 55.976093,136.707535 55.163734,136.875366 
	C55.492088,136.399567 56.118355,136.027405 56.874802,135.909912 
z"/>
<path fill="#E6E6E4" opacity="1.000000" stroke="none" 
	d="
M66.774849,130.107330 
	C66.797081,130.263733 66.592766,130.528091 66.150757,130.887146 
	C66.124817,130.726318 66.336563,130.470810 66.774849,130.107330 
z"/>
<path fill="#BEBDBA" opacity="1.000000" stroke="none" 
	d="
M332.833313,197.725113 
	C332.586060,197.837067 332.350281,197.631836 332.104004,197.118286 
	C332.334351,197.013687 332.584778,197.212997 332.833313,197.725113 
z"/>
<path fill="#050505" opacity="1.000000" stroke="none" 
	d="
M371.129333,103.881271 
	C372.464935,104.613197 373.800568,105.345131 375.505676,106.530602 
	C378.622345,109.570007 377.691803,111.451668 374.638184,112.690125 
	C372.149567,113.699432 369.560303,114.460632 367.015686,115.331848 
	C366.326141,115.353470 365.636597,115.375092 364.216125,115.259186 
	C361.991180,115.470154 360.497192,115.818642 359.003174,116.167130 
	C357.043579,116.268616 355.083984,116.370102 352.310333,116.320213 
	C349.665070,116.498390 347.833862,116.827942 346.002655,117.157501 
	C343.050995,117.251198 340.099335,117.344894 336.292053,117.283066 
	C332.958374,117.464584 330.480255,117.801636 328.002167,118.138687 
	C324.378296,118.217712 320.754395,118.296738 316.227448,118.218391 
	C310.219421,118.055733 305.114471,118.050453 299.966431,117.729324 
	C299.500732,117.120682 299.078094,116.827881 298.655457,116.535080 
	C298.435730,117.363174 298.216034,118.191277 297.996338,119.019379 
	C295.976166,119.135986 293.955994,119.252594 291.471344,118.930893 
	C290.634857,117.983704 290.262817,117.474815 290.050354,116.631042 
	C291.129791,113.886597 292.247864,111.531487 292.927856,109.056038 
	C294.303253,104.049103 295.474365,98.984520 296.632812,93.921539 
	C296.771423,93.315727 296.308228,92.572220 296.314972,91.554077 
	C299.349060,91.450462 302.192169,91.685318 304.997131,91.987198 
	C304.958984,92.054230 304.920197,92.203522 304.939972,92.609421 
	C303.678009,98.686195 302.396301,104.357086 301.114563,110.027977 
	C301.469940,110.133209 301.825287,110.238441 302.180634,110.343674 
	C304.113678,103.964111 306.046692,97.584541 308.442932,91.134529 
	C313.938995,91.106827 318.971832,91.149574 324.289429,91.440369 
	C334.456940,92.546509 344.171173,94.129211 353.504761,97.715378 
	C359.312012,99.946655 365.250000,101.837585 371.129333,103.881271 
M340.629395,102.901749 
	C332.317657,100.444504 324.005920,97.987251 316.650879,95.812836 
	C317.349823,102.478935 317.985229,108.538673 318.631592,114.702988 
	C322.902222,114.702988 327.358154,114.916046 331.782104,114.631485 
	C334.973175,114.426231 339.355743,114.649582 341.028992,112.756645 
	C344.383148,108.962112 348.113739,108.234085 352.762573,107.636848 
	C348.971527,106.121056 345.180481,104.605255 340.629395,102.901749 
M300.578705,112.517204 
	C300.578705,112.517204 300.472015,112.583275 300.578705,112.517204 
z"/>
<path fill="#0A0A0A" opacity="1.000000" stroke="none" 
	d="
M228.113724,91.085625 
	C230.788849,90.064095 233.463959,89.042549 236.767822,88.352325 
	C241.974731,89.452690 246.552902,90.221741 251.097260,91.360718 
	C242.257263,96.812485 233.451080,101.894325 224.300369,107.066322 
	C223.639725,111.789696 223.323593,116.422920 223.007462,121.056137 
	C222.624527,121.160477 222.241577,121.264809 221.136246,121.189651 
	C218.288300,120.944962 216.162750,120.879753 214.006287,120.576553 
	C213.975372,120.338554 213.869873,119.869995 213.885880,119.493805 
	C213.903488,118.113937 213.905090,117.110260 213.936783,115.666840 
	C213.955750,113.770752 213.944641,112.314400 213.853317,110.577652 
	C213.115814,109.587189 212.458527,108.877121 211.805588,107.752808 
	C211.461380,105.877945 211.112839,104.417313 210.920380,102.779343 
	C211.370621,102.409561 211.503815,102.138115 211.476028,101.787666 
	C211.476028,101.787666 211.528076,101.662926 211.870270,101.566132 
	C212.623871,101.047516 213.035309,100.625694 213.446732,100.203873 
	C213.446732,100.203873 213.783447,100.320862 214.279053,100.222969 
	C219.221008,97.111923 223.667358,94.098770 228.113724,91.085625 
z"/>
<path fill="#C7C6C2" opacity="1.000000" stroke="none" 
	d="
M213.008392,127.993225 
	C214.798477,128.694229 216.588562,129.395218 218.698425,130.473724 
	C221.918777,134.554642 225.973557,134.222885 230.332886,133.993561 
	C231.110977,133.995438 231.555588,133.995941 232.299530,134.287476 
	C234.396759,134.719025 236.194382,134.976608 237.992645,134.981339 
	C251.235779,135.016129 264.479340,134.957199 277.721985,135.045135 
	C279.815796,135.059036 281.905731,135.664139 284.011597,136.388535 
	C285.232758,137.401520 286.410004,138.460052 287.653290,138.544312 
	C289.762695,138.687271 291.917938,138.250748 294.046265,137.994217 
	C297.112274,137.624649 298.388885,138.964767 297.713593,142.207855 
	C293.810852,146.716019 289.770416,144.951080 285.768585,143.195633 
	C283.488068,142.195236 281.261322,141.072311 278.633789,140.046844 
	C276.391602,140.697586 274.519775,141.845718 272.661407,141.824417 
	C262.679688,141.710068 252.699295,141.358459 242.722397,140.983307 
	C234.365448,140.669052 226.334091,138.933777 219.124893,134.504410 
	C215.949783,132.553604 213.033295,130.181854 210.375427,128.000427 
	C211.503784,127.997498 212.256088,127.995361 213.008392,127.993225 
z"/>
<path fill="#A4A4A0" opacity="1.000000" stroke="none" 
	d="
M251.131073,90.990791 
	C246.552902,90.221741 241.974731,89.452690 237.154449,88.383438 
	C241.227737,84.899620 246.070267,83.590446 251.411697,83.823097 
	C252.315979,83.862488 253.248947,83.242950 254.926971,83.086456 
	C267.424316,83.797066 279.163361,84.349060 291.327728,84.944359 
	C296.860718,85.970978 301.968384,86.954300 307.041077,88.263245 
	C306.998718,89.024574 306.991364,89.460266 306.754578,90.122894 
	C305.990173,90.967728 305.455170,91.585625 304.920197,92.203522 
	C304.920197,92.203522 304.958984,92.054230 304.892853,91.622116 
	C296.617584,87.132530 288.333771,89.511543 279.638428,90.932877 
	C276.421722,90.678482 273.622925,90.114601 270.835236,90.165253 
	C264.264343,90.284660 257.698792,90.696968 251.131073,90.990791 
z"/>
<path fill="#D2D1CF" opacity="1.000000" stroke="none" 
	d="
M232.000214,133.996460 
	C231.555588,133.995941 231.110977,133.995438 230.091705,133.722382 
	C227.008240,132.322525 224.499405,131.195206 221.990585,130.067902 
	C250.779251,129.871429 279.567993,129.680969 308.355927,129.408936 
	C308.709259,129.405609 309.052704,128.355194 309.545227,129.144699 
	C312.682770,128.954056 315.820129,128.622787 318.957886,128.619659 
	C321.248627,128.617386 323.539795,129.047272 325.693359,129.914520 
	C324.364929,131.022888 323.173981,131.501251 321.620789,132.025208 
	C319.841492,132.383118 318.424377,132.695435 316.710449,133.027618 
	C315.942444,133.362274 315.471222,133.677078 314.667297,133.992813 
	C313.890991,133.994003 313.447357,133.994247 312.928284,133.634033 
	C309.902069,133.513443 306.951263,133.753326 303.542419,133.994354 
	C299.724640,133.993851 296.364960,133.992218 292.930176,133.626419 
	C290.240051,133.174423 287.625061,133.014465 285.009827,133.010590 
	C269.066315,132.986954 253.122589,132.968353 237.179367,133.042557 
	C235.451538,133.050583 233.726532,133.663910 232.000214,133.996460 
z"/>
<path fill="#DFDFDF" opacity="1.000000" stroke="none" 
	d="
M447.970367,132.503769 
	C446.771729,132.786728 445.573059,133.069687 443.790527,133.738602 
	C440.535095,134.575394 437.863556,135.026230 435.192017,135.477051 
	C430.451721,134.652222 425.718323,133.784103 420.967529,133.024902 
	C419.192657,132.741257 417.377197,132.711655 415.290558,132.275909 
	C420.166779,131.767410 425.338654,131.635941 430.495239,131.282074 
	C432.203857,131.164810 434.308716,130.934357 435.410614,129.889221 
	C436.171356,129.167664 435.638397,126.945580 435.477417,125.415771 
	C435.075500,121.596573 434.556000,117.789742 434.455933,113.535278 
	C436.879364,113.057892 438.930603,113.023186 441.315247,113.001221 
	C442.093262,113.011108 442.537842,113.008263 442.982391,113.005417 
	C443.001923,114.389961 443.021423,115.774506 442.771362,117.804947 
	C443.592377,121.390404 444.656952,124.339966 445.783234,127.265793 
	C446.462708,129.030869 447.238098,130.759018 447.970367,132.503769 
z"/>
<path fill="#1C1C1D" opacity="1.000000" stroke="none" 
	d="
M223.453842,121.207260 
	C223.323593,116.422920 223.639725,111.789696 224.394302,107.450645 
	C227.109863,108.863060 230.261963,109.428711 231.416122,111.256187 
	C232.552643,113.055740 231.664108,116.134254 231.664108,119.031418 
	C233.802704,119.031418 236.896957,119.031418 239.974503,119.330490 
	C239.956055,120.026817 239.954330,120.424080 239.952591,120.821335 
	C234.601807,121.000359 229.251007,121.179375 223.453842,121.207260 
z"/>
<path fill="#D2D1CF" opacity="1.000000" stroke="none" 
	d="
M170.372437,122.950523 
	C171.616608,121.037163 172.941986,118.663330 174.957535,117.343384 
	C187.386948,109.203537 199.971970,101.301277 212.847443,93.242142 
	C211.160416,95.255203 209.304764,97.560249 207.057571,99.382401 
	C204.311798,101.608841 201.237534,103.430161 198.158173,105.722443 
	C198.011002,106.018211 198.040604,106.017021 197.714081,106.038788 
	C196.593307,106.720116 195.799042,107.379677 195.002945,108.016830 
	C195.001099,107.994423 195.040680,108.015747 194.682892,108.068863 
	C193.886612,109.144142 193.448090,110.166306 192.849121,111.402794 
	C192.188843,111.781670 191.688980,111.946220 190.950943,111.839767 
	C183.684586,113.239616 178.355499,117.405373 173.976654,122.966431 
	C172.908646,122.970016 171.840652,122.973602 170.372437,122.950523 
z"/>
<path fill="#585959" opacity="1.000000" stroke="none" 
	d="
M370.901978,103.627579 
	C365.250000,101.837585 359.312012,99.946655 353.504761,97.715378 
	C344.171173,94.129211 334.456940,92.546509 324.096252,91.126556 
	C321.385681,89.673615 319.153046,88.782516 316.920380,87.891418 
	C318.550507,87.835114 320.308624,87.348183 321.791046,87.788780 
	C337.457764,92.445160 353.083435,97.239960 368.706329,102.042358 
	C369.430450,102.264946 370.021576,102.920158 370.901978,103.627579 
z"/>
<path fill="#BEBDBA" opacity="1.000000" stroke="none" 
	d="
M191.189133,112.110771 
	C191.688980,111.946220 192.188843,111.781670 193.130219,111.216415 
	C194.061401,109.882393 194.551041,108.949066 195.040680,108.015747 
	C195.040680,108.015747 195.001099,107.994423 195.364868,108.043045 
	C196.499283,107.400116 197.269943,106.708572 198.040604,106.017021 
	C198.040604,106.017021 198.011002,106.018211 198.022446,106.034309 
	C200.465210,105.103210 202.886047,104.127815 205.331314,103.218155 
	C207.127914,102.549805 208.956528,101.967514 211.123444,101.567268 
	C211.503815,102.138115 211.370621,102.409561 210.579514,102.772583 
	C207.707947,104.960747 205.333328,106.978333 202.977631,108.994316 
	C202.996567,108.992722 202.954071,108.986801 202.610962,108.840134 
	C200.143753,110.063919 198.019684,111.434364 195.603394,112.976791 
	C193.388474,114.643402 191.335785,116.001587 189.581299,117.672821 
	C187.979141,119.198952 186.699905,121.064079 184.892548,122.891083 
	C182.708145,123.274055 180.909531,123.545723 179.099731,123.468872 
	C180.040833,121.909286 180.830765,120.509315 181.977051,119.523911 
	C184.964371,116.955872 188.107910,114.569565 191.189133,112.110771 
z"/>
<path fill="#10100F" opacity="1.000000" stroke="none" 
	d="
M345.411987,131.042236 
	C345.848175,131.767197 345.898712,132.430496 345.623047,133.583405 
	C343.193939,136.099564 341.091095,138.126129 338.585388,140.083374 
	C336.820862,139.987122 335.459198,139.960175 333.981354,139.574463 
	C334.685181,136.277054 335.505188,133.338379 336.325195,130.399719 
	C339.225586,130.593338 342.125977,130.786972 345.411987,131.042236 
z"/>
<path fill="#444443" opacity="1.000000" stroke="none" 
	d="
M240.375748,121.000549 
	C239.954330,120.424080 239.956055,120.026817 240.385956,119.212563 
	C252.216934,118.560341 263.619751,118.325119 275.054688,118.540413 
	C275.125427,119.289558 275.164062,119.588181 275.202667,119.886795 
	C269.261139,120.186707 263.319611,120.486618 256.527863,120.574356 
	C253.451416,120.576889 251.225159,120.791588 248.998917,121.006294 
	C246.265579,121.064117 243.532242,121.121941 240.375748,121.000549 
z"/>
<path fill="#585959" opacity="1.000000" stroke="none" 
	d="
M290.902405,84.901062 
	C279.163361,84.349060 267.424316,83.797066 255.277405,83.116409 
	C257.216125,82.591026 259.570221,81.817612 261.907959,81.864204 
	C270.976410,82.044937 280.039703,82.486511 289.655945,83.145523 
	C290.438782,83.940399 290.670593,84.420731 290.902405,84.901062 
z"/>
<path fill="#91918D" opacity="1.000000" stroke="none" 
	d="
M440.981812,112.988472 
	C438.930603,113.023186 436.879364,113.057892 434.397034,113.188461 
	C433.693634,113.069511 433.421326,112.854698 433.022461,112.413101 
	C432.276337,110.717621 431.656860,109.248924 431.448914,107.404434 
	C435.942291,106.712440 440.024139,106.396240 444.105957,106.080040 
	C443.819092,106.870728 443.532227,107.661415 443.096954,109.073563 
	C442.292999,110.792831 441.637390,111.890648 440.981812,112.988472 
z"/>
<path fill="#7B7B79" opacity="1.000000" stroke="none" 
	d="
M291.327728,84.944359 
	C290.670593,84.420731 290.438782,83.940399 290.107849,83.209946 
	C297.737793,83.935310 305.466949,84.910789 313.507690,86.357697 
	C311.571564,87.198616 309.323822,87.568115 307.076050,87.937607 
	C301.968384,86.954300 296.860718,85.970978 291.327728,84.944359 
z"/>
<path fill="#C2C0BB" opacity="1.000000" stroke="none" 
	d="
M321.983002,131.979614 
	C323.173981,131.501251 324.364929,131.022888 325.771271,130.294525 
	C328.088440,130.060043 330.190277,130.075577 332.711884,130.361328 
	C333.131683,130.631546 333.065521,131.023361 332.741516,131.164673 
	C330.370972,131.946472 328.324463,132.586990 326.043243,133.300964 
	C326.357910,135.078018 326.700439,137.012466 326.677124,139.002533 
	C324.877899,139.364365 323.444611,139.670578 321.962280,139.603989 
	C321.936493,136.813995 321.959747,134.396805 321.983002,131.979614 
z"/>
<path fill="#7B7B79" opacity="1.000000" stroke="none" 
	d="
M367.303528,115.565475 
	C369.560303,114.460632 372.149567,113.699432 374.638184,112.690125 
	C377.691803,111.451668 378.622345,109.570007 375.821899,106.653526 
	C377.464172,107.646774 379.159698,108.970642 380.855255,110.294510 
	C379.496399,111.670799 378.366241,113.715576 376.728210,114.275940 
	C373.846222,115.261879 370.653809,115.340515 367.303528,115.565475 
z"/>
<path fill="#91918D" opacity="1.000000" stroke="none" 
	d="
M307.041077,88.263245 
	C309.323822,87.568115 311.571564,87.198616 313.897339,86.454445 
	C314.826385,86.521820 315.677429,86.963860 316.724426,87.648659 
	C319.153046,88.782516 321.385681,89.673615 323.811493,90.878510 
	C318.971832,91.149574 313.938995,91.106827 308.339539,90.873459 
	C307.509918,90.420547 307.246948,90.158257 306.984009,89.895958 
	C306.991364,89.460266 306.998718,89.024574 307.041077,88.263245 
z"/>
<path fill="#7B7B79" opacity="1.000000" stroke="none" 
	d="
M214.037201,120.814545 
	C216.162750,120.879753 218.288300,120.944962 220.833557,121.198608 
	C218.931152,121.925247 216.631271,122.625641 214.279556,122.948181 
	C212.529846,123.188156 210.713013,122.938652 208.246796,122.629105 
	C206.414642,122.263824 205.261765,122.176598 203.963547,121.819183 
	C203.847153,121.044235 203.865753,120.098557 203.906525,120.097595 
	C206.865112,120.028122 209.825455,120.033676 212.893402,120.291992 
	C213.346497,120.638748 213.691849,120.726646 214.037201,120.814545 
z"/>
<path fill="#A4A4A0" opacity="1.000000" stroke="none" 
	d="
M227.733490,91.048042 
	C223.667358,94.098770 219.221008,97.111923 214.414337,100.106918 
	C218.487106,97.062660 222.920181,94.036560 227.733490,91.048042 
z"/>
<path fill="#7B7B79" opacity="1.000000" stroke="none" 
	d="
M300.009521,118.045166 
	C305.114471,118.050453 310.219421,118.055733 315.782288,118.224838 
	C311.049347,118.923737 305.858429,119.458832 300.210541,119.537277 
	C299.838867,118.735474 299.924194,118.390320 300.009521,118.045166 
z"/>
<path fill="#91918D" opacity="1.000000" stroke="none" 
	d="
M333.065521,131.023361 
	C333.065521,131.023361 333.131683,130.631546 333.156616,130.435638 
	C333.984344,130.177429 334.787201,130.115143 335.957611,130.226288 
	C335.505188,133.338379 334.685181,136.277054 333.645844,139.559814 
	C332.623810,139.565414 331.821106,139.226959 331.027618,138.538620 
	C331.713043,135.800278 332.389282,133.411819 333.065521,131.023361 
z"/>
<path fill="#D2D1CF" opacity="1.000000" stroke="none" 
	d="
M204.108887,122.089371 
	C205.261765,122.176598 206.414642,122.263824 207.785522,122.619164 
	C209.568283,124.388260 211.133041,125.889259 212.853104,127.691742 
	C212.256088,127.995361 211.503784,127.997498 210.084702,127.871140 
	C208.621872,127.485695 207.825836,127.228745 206.759277,126.788094 
	C205.270462,125.329033 204.052155,124.053680 203.037277,122.647064 
	C203.540237,122.394325 203.829636,122.252174 204.108887,122.089371 
z"/>
<path fill="#CDCDC9" opacity="1.000000" stroke="none" 
	d="
M221.614288,130.048904 
	C224.499405,131.195206 227.008240,132.322525 229.758240,133.721008 
	C225.973557,134.222885 221.918777,134.554642 218.998001,130.473816 
	C219.731186,130.074234 220.484589,130.052078 221.614288,130.048904 
z"/>
<path fill="#1C1C1D" opacity="1.000000" stroke="none" 
	d="
M275.614227,119.984253 
	C275.164062,119.588181 275.125427,119.289558 275.509766,118.482338 
	C280.585419,117.637802 285.238129,117.301865 289.890808,116.965927 
	C290.262817,117.474815 290.634857,117.983704 291.049500,118.824516 
	C291.092102,119.156441 291.344635,119.273079 290.849945,119.220032 
	C288.103027,119.408783 285.850830,119.650589 283.598602,119.892395 
	C281.074341,119.955490 278.550049,120.018600 275.614227,119.984253 
z"/>
<path fill="#7B7B79" opacity="1.000000" stroke="none" 
	d="
M328.295898,118.370758 
	C330.480255,117.801636 332.958374,117.464584 335.856201,117.299866 
	C333.713837,117.849068 331.151733,118.225952 328.295898,118.370758 
z"/>
<path fill="#7B7B79" opacity="1.000000" stroke="none" 
	d="
M249.290634,121.214783 
	C251.225159,120.791588 253.451416,120.576889 256.096558,120.556610 
	C254.204437,120.975121 251.893387,121.199188 249.290634,121.214783 
z"/>
<path fill="#7B7B79" opacity="1.000000" stroke="none" 
	d="
M283.853516,120.115623 
	C285.850830,119.650589 288.103027,119.408783 290.813477,119.354233 
	C288.883911,119.807281 286.496185,120.073067 283.853516,120.115623 
z"/>
<path fill="#7B7B79" opacity="1.000000" stroke="none" 
	d="
M346.266388,117.384644 
	C347.833862,116.827942 349.665070,116.498390 351.892822,116.339691 
	C350.369629,116.877632 348.449890,117.244705 346.266388,117.384644 
z"/>
<path fill="#7B7B79" opacity="1.000000" stroke="none" 
	d="
M359.251129,116.385544 
	C360.497192,115.818642 361.991180,115.470154 363.871368,115.273109 
	C362.671387,115.817688 361.085236,116.210823 359.251129,116.385544 
z"/>
<path fill="#1C1C1D" opacity="1.000000" stroke="none" 
	d="
M299.966431,117.729324 
	C299.924194,118.390320 299.838867,118.735474 299.763855,119.348572 
	C299.271210,119.560905 298.768250,119.505310 298.130798,119.234543 
	C298.216034,118.191277 298.435730,117.363174 298.655457,116.535080 
	C299.078094,116.827881 299.500732,117.120682 299.966431,117.729324 
z"/>
<path fill="#DFDFDF" opacity="1.000000" stroke="none" 
	d="
M213.137726,100.069977 
	C213.035309,100.625694 212.623871,101.047516 211.908676,101.510529 
	C212.012848,101.013168 212.420776,100.474632 213.137726,100.069977 
z"/>
<path fill="#D2D1CF" opacity="1.000000" stroke="none" 
	d="
M214.274628,93.054817 
	C214.297745,92.940628 214.558640,92.815216 214.903931,92.860687 
	C214.988342,93.031563 214.512421,93.043602 214.274628,93.054817 
z"/>
<path fill="#CBCAC6" opacity="1.000000" stroke="none" 
	d="
M50.078812,144.356506 
	C52.725437,141.699265 55.467033,139.431686 58.812359,137.309570 
	C69.528946,137.255737 79.859276,138.312775 89.711426,136.607361 
	C113.499931,132.489563 137.509003,132.541336 161.434662,130.952377 
	C164.317123,130.760941 167.139374,129.662933 169.995850,128.993668 
	C170.002151,129.002213 170.018372,129.018463 170.121521,129.409119 
	C176.621582,129.983383 183.026871,130.424423 189.411057,130.216797 
	C191.779388,130.139771 195.473724,131.239487 196.361786,127.090340 
	C197.431808,128.163132 198.229370,129.094376 198.667114,130.057343 
	C189.733566,135.248062 180.601639,138.221893 170.464722,136.962997 
	C168.431610,136.710526 166.376373,135.368195 164.468918,135.610657 
	C158.818283,136.328995 153.252731,137.687546 147.623886,138.613129 
	C138.866821,140.053131 130.158356,142.432312 121.153252,140.127869 
	C120.234711,139.892807 119.055069,140.678055 117.996582,140.989838 
	C107.211678,138.016006 96.814857,139.209198 86.372589,143.943115 
	C82.709755,144.140396 79.415581,144.253860 76.127037,144.457886 
	C68.290710,144.944031 60.459118,145.512650 52.619099,145.923630 
	C51.826748,145.965164 50.989956,145.158966 50.078812,144.356506 
z"/>
<path fill="#3D3D3A" opacity="1.000000" stroke="none" 
	d="
M154.872437,184.224960 
	C154.470612,182.635605 154.371460,181.293335 154.877777,179.695038 
	C186.978516,178.254028 218.473816,177.069061 250.364899,175.964203 
	C251.888535,177.535431 253.016403,179.026550 254.761597,181.333832 
	C259.542328,179.399231 264.928894,177.219452 270.315460,175.039673 
	C270.437927,175.347443 270.560425,175.655197 270.682892,175.962952 
	C269.465240,177.348694 268.247620,178.734436 267.029968,180.120193 
	C268.958191,180.604431 270.337708,180.284500 271.555969,179.653366 
	C274.969025,177.885208 278.344788,174.891449 281.404785,180.209473 
	C281.628845,180.598892 283.178314,180.735840 283.665497,180.379791 
	C286.532471,178.284592 289.266998,176.008209 292.361267,173.850433 
	C293.093140,173.818146 293.509918,173.728317 294.286682,173.791702 
	C296.159271,174.131210 297.671875,174.317490 299.789124,174.578232 
	C297.505798,176.727982 295.799866,178.334106 293.101471,180.874664 
	C295.375000,180.622192 296.420593,180.829956 296.888763,180.403641 
	C301.223816,176.456131 306.186554,173.886993 312.302612,173.106812 
	C313.054169,173.447144 313.523651,173.753433 313.727570,174.321136 
	C311.417328,175.044220 309.301697,175.314682 307.353729,176.037079 
	C306.125488,176.492584 305.147980,177.624130 304.057983,178.452438 
	C305.160614,179.636063 306.091095,181.092239 307.413727,181.927429 
	C308.764435,182.780334 310.500153,183.023560 312.067291,183.533707 
	C309.680054,183.613144 307.292816,183.692581 304.100708,183.635269 
	C259.331177,183.845001 215.366318,184.175064 171.402023,184.564774 
	C167.252106,184.601562 163.105530,185.013412 158.957397,185.251129 
	C157.696640,184.991440 156.435883,184.731750 154.872437,184.224960 
z"/>
<path fill="#B1AEA9" opacity="1.000000" stroke="none" 
	d="
M158.988892,185.631958 
	C163.105530,185.013412 167.252106,184.601562 171.402023,184.564774 
	C215.366318,184.175064 259.331177,183.845001 303.653687,183.691360 
	C304.010498,184.069290 304.009552,184.254379 303.535217,184.714600 
	C295.373077,184.988785 287.684387,184.987808 279.619873,184.984238 
	C278.492554,185.003967 277.740997,185.026291 276.593201,185.091339 
	C264.555420,186.078140 252.928772,187.381256 241.268158,187.864227 
	C229.854950,188.336945 218.407135,187.973984 206.678284,187.694290 
	C201.922379,187.606461 197.462692,187.802155 192.668732,188.007217 
	C191.888718,188.010468 191.442932,188.004349 190.698303,187.708008 
	C183.932419,187.634766 177.465378,187.851715 171.000320,188.298431 
	C171.002289,188.528214 170.992172,188.987671 170.992172,188.987671 
	C167.001572,187.996048 163.010986,187.004410 158.988892,185.631958 
z"/>
<path fill="#C7C6C2" opacity="1.000000" stroke="none" 
	d="
M279.995697,184.986816 
	C287.684387,184.987808 295.373077,184.988785 303.530273,184.992188 
	C305.293640,185.662079 306.526276,186.648071 307.899139,186.916443 
	C309.615112,187.251892 311.446442,186.997055 313.227966,186.997055 
	C313.290131,187.399307 313.352295,187.801559 313.414459,188.203827 
	C312.518799,188.468109 311.624420,188.957443 310.727295,188.962570 
	C299.129578,189.028763 287.530548,188.938721 275.933655,189.058517 
	C250.227600,189.324020 224.521713,189.633362 198.817596,190.040863 
	C191.105408,190.163086 183.401093,190.742249 175.688751,190.934875 
	C174.199203,190.972076 172.689041,190.184189 171.090286,189.382294 
	C170.992172,188.987671 171.002289,188.528214 171.469131,188.287369 
	C178.289703,188.030411 184.643433,188.014313 190.997162,187.998215 
	C191.442932,188.004349 191.888718,188.010468 193.132980,188.010956 
	C198.279144,187.996155 202.626831,187.986984 206.974503,187.977814 
	C218.407135,187.973984 229.854950,188.336945 241.268158,187.864227 
	C252.928772,187.381256 264.555420,186.078140 276.653076,185.416168 
	C278.071350,185.461151 279.033539,185.223984 279.995697,184.986816 
z"/>
<path fill="#1C1C1D" opacity="1.000000" stroke="none" 
	d="
M312.510742,183.633270 
	C310.500153,183.023560 308.764435,182.780334 307.413727,181.927429 
	C306.091095,181.092239 305.160614,179.636063 304.057983,178.452438 
	C305.147980,177.624130 306.125488,176.492584 307.353729,176.037079 
	C309.301697,175.314682 311.417328,175.044220 314.193237,174.295929 
	C319.591431,174.059372 324.258362,174.109421 328.925293,174.159485 
	C328.691071,175.553284 328.456879,176.947083 327.721985,178.697220 
	C325.799255,180.641754 324.377258,182.229965 322.955261,183.818176 
	C319.621582,183.789719 316.287872,183.761276 312.510742,183.633270 
z"/>
<path fill="#D2D1CF" opacity="1.000000" stroke="none" 
	d="
M240.115387,197.991837 
	C237.348663,197.991547 235.061234,197.991547 232.773788,197.991547 
	C232.768707,197.562668 232.763641,197.133774 232.758560,196.704895 
	C256.384949,196.704895 280.011322,196.704895 303.637695,196.704895 
	C303.645111,196.764206 303.652496,196.823517 303.659912,196.882828 
	C282.638153,197.252594 261.616425,197.622360 240.115387,197.991837 
z"/>
<path fill="#BEBDBA" opacity="1.000000" stroke="none" 
	d="
M160.586761,194.008362 
	C167.205826,194.430191 173.407303,194.858810 179.608765,195.287430 
	C179.611023,195.403732 179.613297,195.520050 179.615555,195.636353 
	C172.393311,195.636353 165.171066,195.636353 157.948822,195.636353 
	C157.890900,195.435104 157.832977,195.233856 157.775055,195.032593 
	C158.573090,194.693451 159.371109,194.354309 160.586761,194.008362 
z"/>
<path fill="#BEBDBA" opacity="1.000000" stroke="none" 
	d="
M205.840668,195.997955 
	C205.001892,195.872269 204.554413,195.749146 202.801178,195.266724 
	C208.684433,195.266724 213.242020,195.266724 217.799606,195.266724 
	C217.805420,195.511322 217.811234,195.755920 217.817032,196.000519 
	C213.955353,196.000519 210.093658,196.000519 205.840668,195.997955 
z"/>
<path fill="#3D3D3A" opacity="1.000000" stroke="none" 
	d="
M323.271729,183.908981 
	C324.377258,182.229965 325.799255,180.641754 327.551758,179.010803 
	C327.539581,180.043320 327.196899,181.118591 326.724304,182.517731 
	C325.592285,183.227661 324.590240,183.613724 323.271729,183.908981 
z"/>
<path fill="#BEBDBA" opacity="1.000000" stroke="none" 
	d="
M192.259766,195.405365 
	C192.139374,195.556641 191.933609,195.577682 191.727859,195.598724 
	C191.876709,195.490860 192.025558,195.383011 192.259766,195.405365 
z"/>
<path fill="#BEBDBA" opacity="1.000000" stroke="none" 
	d="
M227.527496,195.543427 
	C227.477844,195.571716 227.577133,195.515137 227.527496,195.543427 
z"/>
<path fill="#BEBDBA" opacity="1.000000" stroke="none" 
	d="
M318.544373,195.472107 
	C318.573090,195.521988 318.515625,195.422211 318.544373,195.472107 
z"/>
<path fill="#10100F" opacity="1.000000" stroke="none" 
	d="
M456.001038,191.004700 
	C453.326477,191.161179 450.651886,191.317657 447.128235,191.465485 
	C444.489441,191.542618 442.699738,191.628418 440.910004,191.714218 
	C438.649200,190.891388 436.227295,190.334610 434.208557,189.112076 
	C433.423859,188.636841 433.549042,186.659149 433.896118,185.276154 
	C435.050201,185.002991 435.567963,184.819550 436.456543,184.642944 
	C446.565796,183.375122 456.304199,182.100449 466.106689,181.221512 
	C465.119659,184.433548 464.068542,187.249863 463.017456,190.066162 
	C462.276123,190.102005 461.534821,190.137863 460.085693,190.178864 
	C458.252258,190.457581 457.126648,190.731140 456.001038,191.004700 
z"/>
<path fill="#C7C6C2" opacity="1.000000" stroke="none" 
	d="
M472.544861,152.001282 
	C473.381592,152.668991 473.614014,153.726730 474.170776,153.940765 
	C479.018890,155.804443 478.569336,158.776428 476.048035,162.630615 
	C476.005280,162.994766 475.951843,163.049774 475.645447,163.086319 
	C474.890747,163.422348 474.442383,163.721832 473.606628,164.044098 
	C472.198822,164.227036 471.178406,164.387192 470.157990,164.547348 
	C470.161102,163.720764 469.953979,162.824738 470.200470,162.078537 
	C472.228546,155.938721 471.619141,154.912277 465.184418,155.030579 
	C452.440033,155.264877 439.697784,155.905487 426.956757,155.854172 
	C423.212433,155.839081 419.475189,154.060287 415.366760,153.045822 
	C414.416595,152.185547 413.834412,151.369263 413.125977,150.276627 
	C412.999756,150.000275 413.001221,149.998779 413.385254,150.006134 
	C414.680969,150.342468 415.588318,150.684036 416.504974,150.998459 
	C423.177704,153.287155 429.882355,155.262421 437.391357,153.000000 
	C439.522339,152.665558 441.261993,152.331085 443.001617,151.996628 
	C444.067871,151.997131 445.134094,151.997650 446.825653,152.245331 
	C449.302155,152.325882 451.153351,152.159271 453.004547,151.992676 
	C453.446899,151.992920 453.889252,151.993164 454.998291,151.995819 
	C456.111511,151.996582 456.558044,151.994934 457.004547,151.993286 
	C457.447113,151.993637 457.889648,151.994003 459.064911,151.996887 
	C460.866302,151.997772 461.934967,151.996140 463.003662,151.994507 
	C466.032776,151.996384 469.061890,151.998245 472.544861,152.001282 
z"/>
<path fill="#10100F" opacity="1.000000" stroke="none" 
	d="
M469.851715,164.754547 
	C471.178406,164.387192 472.198822,164.227036 473.637299,164.410522 
	C471.895172,170.214706 470.306885,176.190613 462.588867,177.009521 
	C459.116028,177.411911 456.058807,177.822128 452.849670,177.932526 
	C451.846466,177.063141 450.995209,176.493546 450.143982,175.923935 
	C450.657715,176.252869 451.171448,176.581802 451.685181,176.910721 
	C454.174683,173.758865 456.664185,170.606995 459.153717,167.455170 
	C462.617645,166.624054 466.081543,165.792908 469.851715,164.754547 
z"/>
<path fill="#444443" opacity="1.000000" stroke="none" 
	d="
M458.759644,167.347748 
	C456.664185,170.606995 454.174683,173.758865 451.685181,176.910721 
	C451.171448,176.581802 450.657715,176.252869 450.143982,175.923935 
	C450.995209,176.493546 451.846466,177.063141 452.589417,178.193192 
	C447.026367,179.713669 441.571564,180.673676 435.852234,181.367340 
	C435.273926,180.710754 434.960144,180.320496 434.646362,179.930237 
	C440.053070,171.028015 448.949738,168.648972 458.759644,167.347748 
z"/>
<path fill="#A4A4A0" opacity="1.000000" stroke="none" 
	d="
M441.092957,192.004990 
	C442.699738,191.628418 444.489441,191.542618 446.706451,191.601410 
	C447.148773,192.015015 447.107483,192.275070 446.981354,192.721191 
	C445.060547,192.709381 443.168213,192.502563 441.092957,192.004990 
z"/>
<path fill="#A4A4A0" opacity="1.000000" stroke="none" 
	d="
M434.341156,180.014099 
	C434.960144,180.320496 435.273926,180.710754 435.815613,181.738113 
	C436.057556,183.128845 436.071625,183.882462 436.085693,184.636108 
	C435.567963,184.819550 435.050201,185.002991 434.264954,185.088196 
	C434.010315,183.359283 434.023132,181.728622 434.341156,180.014099 
z"/>
<path fill="#CDCDC9" opacity="1.000000" stroke="none" 
	d="
M442.915894,151.621567 
	C441.261993,152.331085 439.522339,152.665558 437.017914,152.836273 
	C434.633118,152.448303 433.017578,152.074356 431.392365,152.025833 
	C424.429993,151.818008 422.829529,150.704681 420.494690,144.422546 
	C420.230774,143.712463 419.471405,142.728851 418.870728,142.675751 
	C414.924713,142.327042 410.959167,142.199112 406.666687,141.999252 
	C405.888885,141.999390 405.444458,141.999390 404.783386,141.720642 
	C401.710449,140.963135 398.854095,140.484406 395.997742,140.005661 
	C385.354187,137.265488 374.647125,136.507721 363.169861,138.735016 
	C356.884369,139.315460 351.265808,140.136673 345.284668,141.010880 
	C345.611237,139.187973 345.807465,138.092773 346.003662,136.997559 
	C352.977539,135.995956 359.930237,134.392761 366.930725,134.145859 
	C375.579376,133.840836 384.298706,134.315536 392.931213,135.085129 
	C403.900726,136.063065 414.816681,137.651443 425.748138,139.036682 
	C427.542267,139.264023 429.449738,139.498825 431.019104,140.294022 
	C432.145233,140.864639 433.729401,142.635483 433.509308,143.424606 
	C431.812164,149.508728 435.824402,149.633743 439.857758,150.049438 
	C440.878815,150.154663 441.840942,150.832047 442.915894,151.621567 
z"/>
<path fill="#C7C6C2" opacity="1.000000" stroke="none" 
	d="
M346.000885,136.593231 
	C345.807465,138.092773 345.611237,139.187973 345.284668,141.010880 
	C351.265808,140.136673 356.884369,139.315460 362.751465,138.746826 
	C351.588226,142.512787 343.176483,149.953278 335.797668,159.739960 
	C334.476715,160.827759 333.504883,161.463837 332.857635,162.339752 
	C329.131165,167.382889 325.451355,168.394409 320.153503,165.510574 
	C316.646118,163.601349 313.254913,161.478653 308.506470,158.683090 
	C312.362915,157.689835 315.682739,156.834808 318.805115,156.248230 
	C317.501221,157.314545 316.394806,158.112411 315.288391,158.910278 
	C319.443207,158.369171 324.599060,160.057556 326.302490,153.984009 
	C330.018188,150.330597 333.419128,146.831406 336.980286,143.040237 
	C337.756409,141.883087 338.372345,141.017899 338.988251,140.152710 
	C341.091095,138.126129 343.193939,136.099564 345.597504,133.919403 
	C345.931519,134.573502 345.964813,135.381195 346.000885,136.593231 
z"/>
<path fill="#843532" opacity="1.000000" stroke="none" 
	d="
M435.191284,135.798157 
	C437.863556,135.026230 440.535095,134.575394 443.613708,134.064468 
	C448.643707,134.302536 453.263397,134.714249 457.891113,134.848373 
	C460.031860,134.910400 463.062347,133.431015 464.164886,134.394714 
	C466.887543,136.774536 468.729645,140.161835 470.913513,143.502792 
	C464.511627,144.535843 458.130035,145.575836 451.728333,145.719559 
	C448.837067,145.784485 445.603119,144.563660 443.071777,143.025681 
	C440.131378,141.239212 437.791229,138.464844 435.191284,135.798157 
z"/>
<path fill="#CDCDC9" opacity="1.000000" stroke="none" 
	d="
M452.937988,151.647827 
	C451.153351,152.159271 449.302155,152.325882 447.225464,152.244751 
	C448.821381,150.617294 450.576324,148.675385 452.937988,151.647827 
z"/>
<path fill="#CDCDC9" opacity="1.000000" stroke="none" 
	d="
M462.937378,151.651703 
	C461.934967,151.996140 460.866302,151.997772 459.396790,151.996643 
	C459.849792,149.288193 461.189911,149.333755 462.937378,151.651703 
z"/>
<path fill="#CDCDC9" opacity="1.000000" stroke="none" 
	d="
M456.962219,151.699432 
	C456.558044,151.994934 456.111511,151.996582 455.330078,151.995453 
	C455.636749,151.796982 456.278320,151.601273 456.962219,151.699432 
z"/>
<path fill="#E6E6E4" opacity="1.000000" stroke="none" 
	d="
M196.089325,126.948807 
	C195.473724,131.239487 191.779388,130.139771 189.411057,130.216797 
	C183.026871,130.424423 176.621582,129.983383 170.357941,129.399811 
	C170.759293,128.875824 171.027390,128.751770 171.295486,128.627731 
	C170.860168,128.746857 170.424850,128.865997 169.989532,128.985123 
	C167.139374,129.662933 164.317123,130.760941 161.434662,130.952377 
	C137.509003,132.541336 113.499931,132.489563 89.711426,136.607361 
	C79.859276,138.312775 69.528946,137.255737 59.106941,137.155380 
	C58.797798,136.855743 58.906219,136.434189 58.941956,136.219604 
	C60.709034,135.018661 62.440372,134.032303 64.497978,133.000381 
	C70.401459,132.407867 75.976959,131.842407 81.556870,131.324631 
	C83.368279,131.156525 85.191002,131.108276 87.008980,131.013519 
	C99.144081,130.380920 111.280342,129.769943 123.414017,129.111206 
	C129.356384,128.788589 135.289764,128.275848 141.234711,128.031021 
	C151.493958,127.608543 161.759079,127.328026 172.790619,126.972305 
	C174.033737,126.633125 174.507996,126.309578 174.982239,125.986023 
	C174.982239,125.986023 174.997665,125.999527 175.215271,125.886139 
	C175.708496,125.575218 175.894150,125.313774 175.989807,124.988426 
	C175.989807,124.988426 175.995483,124.998207 176.344818,124.994034 
	C177.499741,124.599045 178.305328,124.208221 179.110916,123.817398 
	C180.909531,123.545723 182.708145,123.274055 185.322052,122.833405 
	C189.060013,122.842628 191.982651,123.020821 194.907410,123.532379 
	C195.302795,124.893425 195.696060,125.921120 196.089325,126.948807 
z"/>
<path fill="#DFDFDF" opacity="1.000000" stroke="none" 
	d="
M179.099731,123.468872 
	C178.305328,124.208221 177.499741,124.599045 176.338211,124.987091 
	C175.526688,124.347702 175.071121,123.711090 174.296112,123.020454 
	C178.355499,117.405373 183.684586,113.239616 190.950943,111.839767 
	C188.107910,114.569565 184.964371,116.955872 181.977051,119.523911 
	C180.830765,120.509315 180.040833,121.909286 179.099731,123.468872 
z"/>
<path fill="#DFDFDF" opacity="1.000000" stroke="none" 
	d="
M174.682358,126.004440 
	C174.507996,126.309578 174.033737,126.633125 173.255753,126.972099 
	C173.428833,126.665962 173.905655,126.344406 174.682358,126.004440 
z"/>
<path fill="#DFDFDF" opacity="1.000000" stroke="none" 
	d="
M175.770081,125.094452 
	C175.894150,125.313774 175.708496,125.575218 175.212372,125.877319 
	C175.086487,125.655960 175.272644,125.395493 175.770081,125.094452 
z"/>
<path fill="#C2C0BB" opacity="1.000000" stroke="none" 
	d="
M319.002563,155.979767 
	C315.682739,156.834808 312.362915,157.689835 308.506470,158.683090 
	C313.254913,161.478653 316.646118,163.601349 320.153503,165.510574 
	C325.451355,168.394409 329.131165,167.382889 332.857635,162.339752 
	C333.504883,161.463837 334.476715,160.827759 335.648712,160.039230 
	C333.773438,164.520981 331.548126,169.044418 329.124023,173.863647 
	C324.258362,174.109421 319.591431,174.059372 314.458801,174.034515 
	C313.523651,173.753433 313.054169,173.447144 312.011780,172.803116 
	C306.664978,172.308594 301.890503,172.048492 297.117554,172.074570 
	C296.051086,172.080383 294.990143,173.090637 293.926666,173.638458 
	C293.509918,173.728317 293.093140,173.818146 292.340302,173.491074 
	C291.695709,172.533310 291.350494,171.502716 291.084045,171.522705 
	C282.622253,172.157181 274.170197,172.919342 265.711273,173.595093 
	C263.766724,173.750443 261.241028,174.456177 259.949219,173.542374 
	C255.438324,170.351364 252.881058,173.439636 249.969116,175.884094 
	C218.473816,177.069061 186.978516,178.254028 155.074554,179.397064 
	C153.282043,178.223282 150.857513,177.240631 150.670654,175.937180 
	C147.939697,156.886932 135.695190,146.923859 118.237915,141.260162 
	C119.055069,140.678055 120.234711,139.892807 121.153252,140.127869 
	C130.158356,142.432312 138.866821,140.053131 147.623886,138.613129 
	C153.252731,137.687546 158.818283,136.328995 164.468918,135.610657 
	C166.376373,135.368195 168.431610,136.710526 170.464722,136.962997 
	C180.601639,138.221893 189.733566,135.248062 198.669388,130.427216 
	C199.442352,131.988876 199.490540,133.677368 200.339340,134.339371 
	C202.127380,135.733917 204.334961,136.590530 206.370392,137.667877 
	C206.918686,135.527008 207.707932,133.410522 207.927841,131.236450 
	C208.067154,129.859268 207.358276,128.396286 207.029785,126.971794 
	C207.825836,127.228745 208.621872,127.485695 209.708649,127.871933 
	C213.033295,130.181854 215.949783,132.553604 219.124893,134.504410 
	C226.334091,138.933777 234.365448,140.669052 242.722397,140.983307 
	C252.699295,141.358459 262.679688,141.710068 272.661407,141.824417 
	C274.519775,141.845718 276.391602,140.697586 278.676514,140.400543 
	C283.075378,146.379135 292.660004,148.008713 301.238983,144.341736 
	C300.091217,143.508301 299.043518,142.747543 297.995819,141.986786 
	C298.388885,138.964767 297.112274,137.624649 294.046265,137.994217 
	C291.917938,138.250748 289.762695,138.687271 287.653290,138.544312 
	C286.410004,138.460052 285.232758,137.401520 284.376221,136.394241 
	C287.151123,135.671539 289.575562,135.335770 292.263672,135.273438 
	C301.752594,137.214401 311.835480,136.201889 319.067963,144.441772 
	C320.037750,147.859833 321.024139,150.881180 321.876770,154.200989 
	C320.829529,154.992889 319.916046,155.486343 319.002563,155.979767 
M162.785477,163.863953 
	C163.041565,167.936600 163.297653,172.009262 163.553726,176.081909 
	C163.637573,176.037369 163.721405,175.992844 163.805237,175.948303 
	C163.805237,166.204102 163.805237,156.459915 163.805237,146.715729 
	C163.372040,146.733902 162.938843,146.752075 162.505646,146.770248 
	C162.505646,152.172928 162.505646,157.575607 162.785477,163.863953 
M292.589630,169.524460 
	C292.589630,169.524460 292.479065,169.593201 292.589630,169.524460 
z"/>
<path fill="#C7C6C2" opacity="1.000000" stroke="none" 
	d="
M405.000000,141.999390 
	C405.444458,141.999390 405.888885,141.999390 406.814209,142.297302 
	C409.197113,145.063065 411.099152,147.530930 413.001221,149.998779 
	C413.001221,149.998779 412.999756,150.000275 412.996552,150.003387 
	C410.427155,147.873886 407.860992,145.741257 405.146973,143.057587 
	C404.999390,142.337479 404.999695,142.168442 405.000000,141.999390 
z"/>
<path fill="#CBCAC6" opacity="1.000000" stroke="none" 
	d="
M404.783386,141.720642 
	C404.999695,142.168442 404.999390,142.337479 404.998352,142.760284 
	C402.152405,142.189499 399.307220,141.364944 396.229919,140.273026 
	C398.854095,140.484406 401.710449,140.963135 404.783386,141.720642 
z"/>
<path fill="#CDCDC9" opacity="1.000000" stroke="none" 
	d="
M448.121277,132.864288 
	C447.238098,130.759018 446.462708,129.030869 445.783234,127.265793 
	C444.656952,124.339966 443.592377,121.390404 442.781006,118.220222 
	C447.168335,122.167969 452.784210,125.290962 453.006897,132.590836 
	C451.432037,133.067688 449.852142,133.146240 448.121277,132.864288 
z"/>
<path fill="#7B7B79" opacity="1.000000" stroke="none" 
	d="
M444.497864,106.020195 
	C440.024139,106.396240 435.942291,106.712440 431.398071,107.060242 
	C430.645081,106.724869 430.354431,106.357910 430.063751,105.990952 
	C433.900879,105.218658 437.731171,104.409637 441.578461,103.691879 
	C443.150970,103.398506 444.760345,103.302673 446.748352,103.108353 
	C447.145782,103.755554 447.147766,104.411362 447.205750,105.395508 
	C446.471100,105.802681 445.680420,105.881516 444.497864,106.020195 
z"/>
<path fill="#B1AEA9" opacity="1.000000" stroke="none" 
	d="
M449.951416,107.499855 
	C454.327026,107.452835 458.730103,107.751526 463.600220,108.098473 
	C464.040131,109.189049 464.013031,110.231361 463.583862,111.652122 
	C459.768005,111.687943 456.354156,111.345314 452.940338,111.002686 
	C451.953186,109.950310 450.966003,108.897934 449.951416,107.499855 
z"/>
<path fill="#91918D" opacity="1.000000" stroke="none" 
	d="
M453.004883,111.319191 
	C456.354156,111.345314 459.768005,111.687943 463.567139,112.045624 
	C463.540314,113.019997 463.128204,113.979324 461.988525,114.966072 
	C459.503265,114.669312 457.745544,114.345123 455.987793,114.020935 
	C455.014984,113.225853 454.042206,112.430779 453.004883,111.319191 
z"/>
<path fill="#B1AEA9" opacity="1.000000" stroke="none" 
	d="
M460.021362,127.547882 
	C460.038422,127.925072 459.586060,128.016937 459.357056,128.030136 
	C456.735992,126.590431 454.343903,125.137535 450.942596,123.071663 
	C456.887909,121.067863 459.368561,122.531258 460.021362,127.547882 
z"/>
<path fill="#B1AEA9" opacity="1.000000" stroke="none" 
	d="
M455.988464,114.407410 
	C457.745544,114.345123 459.503265,114.669312 461.647156,115.034012 
	C460.532806,115.991844 459.032318,116.909149 457.531860,117.826462 
	C457.017609,116.815605 456.503387,115.804749 455.988464,114.407410 
z"/>
<path fill="#CDCDC9" opacity="1.000000" stroke="none" 
	d="
M441.315247,113.001213 
	C441.637390,111.890648 442.292999,110.792831 443.011871,109.378998 
	C443.217529,110.239487 443.359894,111.415977 443.242340,112.798943 
	C442.537842,113.008263 442.093262,113.011108 441.315247,113.001213 
z"/>
<path fill="#B1AEA9" opacity="1.000000" stroke="none" 
	d="
M465.945129,115.587868 
	C465.705902,115.195877 465.710968,114.807297 465.716064,114.418724 
	C465.877594,114.421227 466.179749,114.416245 466.180359,114.427315 
	C466.200958,114.814369 466.193207,115.202934 465.945129,115.587868 
z"/>
<path fill="#C3C1BC" opacity="1.000000" stroke="none" 
	d="
M436.456543,184.642944 
	C436.071625,183.882462 436.057556,183.128845 436.080139,182.004456 
	C441.571564,180.673676 447.026367,179.713669 452.741364,178.492981 
	C456.058807,177.822128 459.116028,177.411911 462.783264,177.244064 
	C464.599213,177.342331 465.805145,177.198227 467.011108,177.054138 
	C467.007172,177.792099 467.003235,178.530075 466.792603,179.716034 
	C466.293213,180.292999 466.112122,180.513580 466.042633,180.825775 
	C456.304199,182.100449 446.565796,183.375122 436.456543,184.642944 
z"/>
<path fill="#A4A4A0" opacity="1.000000" stroke="none" 
	d="
M467.379700,177.020554 
	C465.805145,177.198227 464.599213,177.342331 463.198914,177.251892 
	C470.306885,176.190613 471.895172,170.214706 474.024689,164.387726 
	C474.442383,163.721832 474.890747,163.422348 475.618774,163.113892 
	C474.722717,168.636963 473.727051,174.274750 467.379700,177.020554 
z"/>
<path fill="#A4A4A0" opacity="1.000000" stroke="none" 
	d="
M466.106689,181.221497 
	C466.112122,180.513580 466.293213,180.292999 466.792328,180.085022 
	C468.571930,184.518143 467.253387,188.413147 463.225281,190.302734 
	C464.068542,187.249863 465.119659,184.433548 466.106689,181.221497 
z"/>
<path fill="#A4A4A0" opacity="1.000000" stroke="none" 
	d="
M456.209839,191.254578 
	C457.126648,190.731140 458.252258,190.457581 459.725708,190.271820 
	C458.855255,190.741241 457.636932,191.122864 456.209839,191.254578 
z"/>
<path fill="#B1AEA9" opacity="1.000000" stroke="none" 
	d="
M56.983994,153.993317 
	C60.516216,154.158142 64.065414,154.330688 67.614616,154.503235 
	C67.546722,155.219513 67.478821,155.935806 67.410927,156.652100 
	C63.945370,156.173645 60.129066,159.331802 57.019936,154.379913 
	C56.984688,153.967468 57.000973,154.001022 56.983994,153.993317 
z"/>
<path fill="#F2F2F2" opacity="1.000000" stroke="none" 
	d="
M290.050354,116.631042 
	C285.238129,117.301865 280.585419,117.637802 275.477661,118.031822 
	C263.619751,118.325119 252.216934,118.560341 240.402649,118.913490 
	C236.896957,119.031418 233.802704,119.031418 231.664108,119.031418 
	C231.664108,116.134254 232.552643,113.055740 231.416122,111.256187 
	C230.261963,109.428711 227.109863,108.863060 224.738815,107.360489 
	C233.451080,101.894325 242.257263,96.812485 251.097260,91.360718 
	C257.698792,90.696968 264.264343,90.284660 270.835236,90.165253 
	C273.622925,90.114601 276.421722,90.678482 280.053772,90.982101 
	C285.969360,91.298279 291.046661,91.595406 296.123993,91.892532 
	C296.308228,92.572220 296.771423,93.315727 296.632812,93.921539 
	C295.474365,98.984520 294.303253,104.049103 292.927856,109.056038 
	C292.247864,111.531487 291.129791,113.886597 290.050354,116.631042 
z"/>
<path fill="#F0F0F0" opacity="1.000000" stroke="none" 
	d="
M341.009430,102.995605 
	C345.180481,104.605255 348.971527,106.121056 352.762573,107.636848 
	C348.113739,108.234085 344.383148,108.962112 341.028992,112.756645 
	C339.355743,114.649582 334.973175,114.426231 331.782104,114.631485 
	C327.358154,114.916046 322.902222,114.702988 318.631592,114.702988 
	C317.985229,108.538673 317.349823,102.478935 316.650879,95.812836 
	C324.005920,97.987251 332.317657,100.444504 341.009430,102.995605 
z"/>
<path fill="#91918D" opacity="1.000000" stroke="none" 
	d="
M296.314972,91.554077 
	C291.046661,91.595406 285.969360,91.298279 280.476715,90.951920 
	C288.333771,89.511543 296.617584,87.132530 304.931000,91.555084 
	C302.192169,91.685318 299.349060,91.450462 296.314972,91.554077 
z"/>
<path fill="#1C1C1D" opacity="1.000000" stroke="none" 
	d="
M306.754578,90.122894 
	C307.246948,90.158257 307.509918,90.420547 307.876282,90.943909 
	C306.046692,97.584541 304.113678,103.964111 302.180634,110.343674 
	C301.825287,110.238441 301.469940,110.133209 301.114563,110.027977 
	C302.396301,104.357086 303.678009,98.686195 304.939972,92.609413 
	C305.455170,91.585625 305.990173,90.967728 306.754578,90.122894 
z"/>
<path fill="#1C1C1D" opacity="1.000000" stroke="none" 
	d="
M300.525360,112.550240 
	C300.472015,112.583275 300.578705,112.517204 300.525360,112.550240 
z"/>
<path fill="#3D3D3A" opacity="1.000000" stroke="none" 
	d="
M194.905304,123.199013 
	C191.982651,123.020821 189.060013,122.842628 185.707855,122.722115 
	C186.699905,121.064079 187.979141,119.198952 189.581299,117.672821 
	C191.335785,116.001587 193.388474,114.643402 195.895660,113.123932 
	C197.319046,113.773994 198.157959,114.448921 199.053329,115.169266 
	C199.748596,114.680939 200.787277,113.951424 202.236542,113.225311 
	C203.447617,113.072563 204.248108,112.916428 205.026947,113.025757 
	C205.012238,113.467644 205.019196,113.644081 205.071533,114.226288 
	C208.046844,115.123558 210.976776,115.615067 213.906708,116.106575 
	C213.905090,117.110260 213.903488,118.113937 213.616425,119.541382 
	C213.149200,119.987801 212.967438,120.010475 212.785660,120.033142 
	C209.825455,120.033676 206.865112,120.028122 203.906525,120.097595 
	C203.865753,120.098557 203.847153,121.044235 203.963547,121.819183 
	C203.829636,122.252174 203.540237,122.394325 202.668503,122.625244 
	C199.699310,122.889458 197.302307,123.044235 194.905304,123.199013 
M197.399597,119.407890 
	C198.222336,119.251457 199.045059,119.095024 199.867798,118.938599 
	C199.758881,118.507103 199.649963,118.075615 199.541046,117.644112 
	C198.748611,118.046867 197.956192,118.449623 197.399597,119.407890 
z"/>
<path fill="#B1AEA9" opacity="1.000000" stroke="none" 
	d="
M205.048584,112.760300 
	C204.248108,112.916428 203.447617,113.072563 202.291626,112.854744 
	C202.275421,111.316124 202.614746,110.151466 202.954071,108.986801 
	C202.954071,108.986801 202.996567,108.992722 203.341553,109.039078 
	C206.391434,108.779312 209.096344,108.473190 211.801239,108.167061 
	C212.458527,108.877121 213.115814,109.587189 213.467163,110.634773 
	C211.146408,111.348923 209.131607,111.725540 206.821716,112.029861 
	C206.033951,112.225143 205.541275,112.492722 205.048584,112.760300 
z"/>
<path fill="#1C1C1D" opacity="1.000000" stroke="none" 
	d="
M207.116821,112.102158 
	C209.131607,111.725540 211.146408,111.348923 213.547363,110.915176 
	C213.944641,112.314400 213.955750,113.770752 213.936783,115.666840 
	C210.976776,115.615067 208.046844,115.123558 205.363541,114.189232 
	C206.112381,113.198334 206.614594,112.650253 207.116821,112.102158 
z"/>
<path fill="#585959" opacity="1.000000" stroke="none" 
	d="
M211.805588,107.752823 
	C209.096344,108.473190 206.391434,108.779312 203.322617,109.040680 
	C205.333328,106.978333 207.707947,104.960747 210.423431,102.949921 
	C211.112839,104.417313 211.461380,105.877945 211.805588,107.752823 
z"/>
<path fill="#1C1C1D" opacity="1.000000" stroke="none" 
	d="
M212.893402,120.291992 
	C212.967438,120.010475 213.149200,119.987801 213.600418,119.917564 
	C213.869873,119.869995 213.975372,120.338554 214.006287,120.576553 
	C213.691849,120.726646 213.346497,120.638748 212.893402,120.291992 
z"/>
<path fill="#CDCDC9" opacity="1.000000" stroke="none" 
	d="
M292.000000,135.000000 
	C289.575562,135.335770 287.151123,135.671539 284.362061,136.001602 
	C281.905731,135.664139 279.815796,135.059036 277.721985,135.045135 
	C264.479340,134.957199 251.235779,135.016129 237.992645,134.981339 
	C236.194382,134.976608 234.396759,134.719025 232.299530,134.287476 
	C233.726532,133.663910 235.451538,133.050583 237.179367,133.042557 
	C253.122589,132.968353 269.066315,132.986954 285.009827,133.010590 
	C287.625061,133.014465 290.240051,133.174423 292.713287,133.740631 
	C292.299835,134.419998 292.109375,134.680328 292.000000,135.000000 
z"/>
<path fill="#B1AEA9" opacity="1.000000" stroke="none" 
	d="
M297.713593,142.207855 
	C299.043518,142.747543 300.091217,143.508301 301.238983,144.341736 
	C292.660004,148.008713 283.075378,146.379135 279.053070,140.358246 
	C281.261322,141.072311 283.488068,142.195236 285.768585,143.195633 
	C289.770416,144.951080 293.810852,146.716019 297.713593,142.207855 
z"/>
<path fill="#C7C6C2" opacity="1.000000" stroke="none" 
	d="
M292.263672,135.273438 
	C292.109375,134.680328 292.299835,134.419998 292.788330,134.104813 
	C296.364960,133.992218 299.724640,133.993851 303.795502,134.269196 
	C307.339020,134.360107 310.171387,134.177307 313.003754,133.994507 
	C313.447357,133.994247 313.890991,133.994003 314.840485,134.215912 
	C315.899994,133.961288 316.453644,133.484512 317.007294,133.007751 
	C318.424377,132.695435 319.841492,132.383118 321.620789,132.025208 
	C321.959747,134.396805 321.936493,136.813995 321.605591,139.679596 
	C320.873535,141.156097 320.449127,142.184189 319.910767,143.392212 
	C319.600403,143.791519 319.362976,143.949158 319.084564,144.045044 
	C311.835480,136.201889 301.752594,137.214401 292.263672,135.273438 
z"/>
<path fill="#CDCDC9" opacity="1.000000" stroke="none" 
	d="
M312.928284,133.634033 
	C310.171387,134.177307 307.339020,134.360107 304.253571,134.268066 
	C306.951263,133.753326 309.902069,133.513443 312.928284,133.634033 
z"/>
<path fill="#CDCDC9" opacity="1.000000" stroke="none" 
	d="
M316.710449,133.027618 
	C316.453644,133.484512 315.899994,133.961288 315.173187,134.214966 
	C315.471222,133.677078 315.942444,133.362274 316.710449,133.027618 
z"/>
<path fill="#EAEAEA" opacity="1.000000" stroke="none" 
	d="
M197.714081,106.038788 
	C197.269943,106.708572 196.499283,107.400116 195.366699,108.065460 
	C195.799042,107.379677 196.593307,106.720116 197.714081,106.038788 
z"/>
<path fill="#EAEAEA" opacity="1.000000" stroke="none" 
	d="
M194.682892,108.068863 
	C194.551041,108.949066 194.061401,109.882393 193.290665,111.002090 
	C193.448090,110.166306 193.886612,109.144142 194.682892,108.068863 
z"/>
<path fill="#7B7B79" opacity="1.000000" stroke="none" 
	d="
M202.610962,108.840134 
	C202.614746,110.151466 202.275421,111.316124 201.881012,112.851349 
	C200.787277,113.951424 199.748596,114.680939 199.053329,115.169266 
	C198.157959,114.448921 197.319046,113.773994 196.187866,112.951942 
	C198.019684,111.434364 200.143753,110.063919 202.610962,108.840134 
z"/>
<path fill="#D2D1CF" opacity="1.000000" stroke="none" 
	d="
M320.024719,143.212265 
	C320.449127,142.184189 320.873535,141.156097 321.654602,140.052399 
	C323.444611,139.670578 324.877899,139.364365 326.998474,139.045319 
	C328.796600,138.984497 329.907532,138.936493 331.018433,138.888489 
	C331.821106,139.226959 332.623810,139.565414 333.761993,139.918549 
	C335.459198,139.960175 336.820862,139.987122 338.585388,140.083389 
	C338.372345,141.017899 337.756409,141.883087 336.563843,142.905472 
	C333.083801,143.095169 330.180389,143.127670 326.828125,143.063538 
	C324.261047,143.048660 322.142883,143.130463 320.024719,143.212265 
z"/>
<path fill="#B1AEA9" opacity="1.000000" stroke="none" 
	d="
M331.027618,138.538605 
	C329.907532,138.936493 328.796600,138.984497 327.364349,138.989700 
	C326.700439,137.012466 326.357910,135.078018 326.043243,133.300964 
	C328.324463,132.586990 330.370972,131.946472 332.741516,131.164673 
	C332.389282,133.411819 331.713043,135.800278 331.027618,138.538605 
z"/>
<path fill="#B1AEA9" opacity="1.000000" stroke="none" 
	d="
M194.907410,123.532379 
	C197.302307,123.044235 199.699310,122.889458 202.465088,122.756500 
	C204.052155,124.053680 205.270462,125.329033 206.759277,126.788094 
	C207.358276,128.396286 208.067154,129.859268 207.927841,131.236450 
	C207.707932,133.410522 206.918686,135.527008 206.370392,137.667877 
	C204.334961,136.590530 202.127380,135.733917 200.339340,134.339371 
	C199.490540,133.677368 199.442352,131.988876 199.029205,130.395508 
	C198.229370,129.094376 197.431808,128.163132 196.361786,127.090340 
	C195.696060,125.921120 195.302795,124.893425 194.907410,123.532379 
z"/>
<path fill="#A4A4A0" opacity="1.000000" stroke="none" 
	d="
M250.364899,175.964203 
	C252.881058,173.439636 255.438324,170.351364 259.949219,173.542374 
	C261.241028,174.456177 263.766724,173.750443 265.711273,173.595093 
	C274.170197,172.919342 282.622253,172.157181 291.084045,171.522705 
	C291.350494,171.502716 291.695709,172.533310 292.025208,173.433517 
	C289.266998,176.008209 286.532471,178.284592 283.665497,180.379791 
	C283.178314,180.735840 281.628845,180.598892 281.404785,180.209473 
	C278.344788,174.891449 274.969025,177.885208 271.555969,179.653366 
	C270.337708,180.284500 268.958191,180.604431 267.029968,180.120193 
	C268.247620,178.734436 269.465240,177.348694 270.682892,175.962952 
	C270.560425,175.655197 270.437927,175.347443 270.315460,175.039673 
	C264.928894,177.219452 259.542328,179.399231 254.761597,181.333832 
	C253.016403,179.026550 251.888535,177.535431 250.364899,175.964203 
z"/>
<path fill="#A4A4A0" opacity="1.000000" stroke="none" 
	d="
M294.286682,173.791687 
	C294.990143,173.090637 296.051086,172.080383 297.117554,172.074570 
	C301.890503,172.048492 306.664978,172.308594 311.729736,172.769073 
	C306.186554,173.886993 301.223816,176.456131 296.888763,180.403641 
	C296.420593,180.829956 295.375000,180.622192 293.101471,180.874664 
	C295.799866,178.334106 297.505798,176.727982 299.789124,174.578232 
	C297.671875,174.317490 296.159271,174.131210 294.286682,173.791687 
z"/>
<path fill="#A4A4A0" opacity="1.000000" stroke="none" 
	d="
M190.698303,187.708008 
	C184.643433,188.014313 178.289703,188.030411 171.467163,188.057587 
	C177.465378,187.851715 183.932419,187.634766 190.698303,187.708008 
z"/>
<path fill="#A4A4A0" opacity="1.000000" stroke="none" 
	d="
M206.678284,187.694290 
	C202.626831,187.986984 198.279144,187.996155 193.467224,188.001587 
	C197.462692,187.802155 201.922379,187.606461 206.678284,187.694290 
z"/>
<path fill="#C3C1BC" opacity="1.000000" stroke="none" 
	d="
M279.619873,184.984222 
	C279.033539,185.223984 278.071350,185.461151 277.049316,185.373459 
	C277.740997,185.026291 278.492554,185.003967 279.619873,184.984222 
z"/>
<path fill="#CBCAC6" opacity="1.000000" stroke="none" 
	d="
M413.385254,150.006134 
	C411.099152,147.530930 409.197113,145.063065 407.147522,142.297150 
	C410.959167,142.199112 414.924713,142.327042 418.870728,142.675751 
	C419.471405,142.728851 420.230774,143.712463 420.494690,144.422546 
	C422.829529,150.704681 424.429993,151.818008 431.392365,152.025833 
	C433.017578,152.074356 434.633118,152.448303 436.626556,152.836258 
	C429.882355,155.262421 423.177704,153.287155 416.504974,150.998459 
	C415.588318,150.684036 414.680969,150.342468 413.385254,150.006134 
z"/>
<path fill="#1C1C1D" opacity="1.000000" stroke="none" 
	d="
M327.276978,143.160187 
	C330.180389,143.127670 333.083801,143.095169 336.403625,143.197433 
	C333.419128,146.831406 330.018188,150.330597 326.115601,153.892868 
	C325.613922,153.955948 325.208679,153.862457 325.175537,153.476318 
	C325.663696,151.333237 326.282990,149.597855 326.676331,147.812714 
	C327.011475,146.291611 327.086731,144.713226 327.276978,143.160187 
z"/>
<path fill="#D2D1CF" opacity="1.000000" stroke="none" 
	d="
M325.208679,153.862457 
	C325.208679,153.862457 325.613922,153.955948 325.800842,154.047089 
	C324.599060,160.057556 319.443207,158.369171 315.288391,158.910278 
	C316.394806,158.112411 317.501221,157.314545 318.805115,156.248230 
	C319.916046,155.486343 320.829529,154.992889 322.276489,154.212936 
	C323.609528,153.905090 324.409119,153.883774 325.208679,153.862457 
z"/>
<path fill="#CBCAC6" opacity="1.000000" stroke="none" 
	d="
M169.995850,128.993668 
	C170.424850,128.865997 170.860168,128.746857 171.295486,128.627731 
	C171.027390,128.751770 170.759293,128.875824 170.254791,129.009155 
	C170.018372,129.018463 170.002151,129.002213 169.995850,128.993668 
z"/>
<path fill="#A4A4A0" opacity="1.000000" stroke="none" 
	d="
M325.175537,153.476318 
	C324.409119,153.883774 323.609528,153.905090 322.410217,153.914459 
	C321.024139,150.881180 320.037750,147.859833 319.067963,144.441772 
	C319.362976,143.949158 319.600403,143.791519 319.910767,143.392212 
	C322.142883,143.130463 324.261047,143.048660 326.828094,143.063538 
	C327.086731,144.713226 327.011475,146.291611 326.676331,147.812714 
	C326.282990,149.597855 325.663696,151.333237 325.175537,153.476318 
z"/>
<path fill="#A4A4A0" opacity="1.000000" stroke="none" 
	d="
M162.645569,163.421112 
	C162.505646,157.575607 162.505646,152.172928 162.505646,146.770248 
	C162.938843,146.752075 163.372040,146.733902 163.805237,146.715729 
	C163.805237,156.459915 163.805237,166.204102 163.805237,175.948303 
	C163.721405,175.992844 163.637573,176.037369 163.553726,176.081909 
	C163.297653,172.009262 163.041565,167.936600 162.645569,163.421112 
z"/>
<path fill="#A4A4A0" opacity="1.000000" stroke="none" 
	d="
M292.534363,169.558838 
	C292.479065,169.593201 292.589630,169.524460 292.534363,169.558838 
z"/>
<path fill="#7B7B79" opacity="1.000000" stroke="none" 
	d="
M197.281677,119.130135 
	C197.956192,118.449623 198.748611,118.046867 199.541046,117.644119 
	C199.649963,118.075615 199.758881,118.507103 199.867798,118.938599 
	C199.045059,119.095024 198.222336,119.251457 197.281677,119.130135 
z"/>
<path fill="#7B7B79" opacity="1.000000" stroke="none" 
	d="
M206.821716,112.029861 
	C206.614594,112.650253 206.112381,113.198334 205.318161,113.783463 
	C205.019196,113.644081 205.012238,113.467644 205.026947,113.025757 
	C205.541275,112.492722 206.033951,112.225143 206.821716,112.029861 
z"/>
</svg>